<?xml version="1.0" encoding="utf-8"?>
<!-- Generator: Adobe Illustrator 26.0.1, SVG Export Plug-In . SVG Version: 6.00 Build 0)  -->
<svg version="1.1" id="Layer_1" xmlns="http://www.w3.org/2000/svg" xmlns:xlink="http://www.w3.org/1999/xlink" x="0px" y="0px"
	 viewBox="93.8 59.2 324.6 392.8" style="enable-background:new 93.8 59.2 324.6 392.8;" xml:space="preserve">
<style type="text/css">
	.st0{fill:#1D441F;}
	.st1{fill:#AA7C2C;}
	.st2{fill:#1D431E;}
	.st3{fill:#721011;}
	.st4{fill:#090909;}
	.st5{fill:#060707;}
	.st6{fill:#0B0B0B;}
	.st7{fill:#0F0F10;}
	.st8{fill:#161616;}
</style>
<g>
	<path class="st0" d="M408.2,136.8c0.2,2.3,0.3,5.2,0.2,8c-0.2,5.2,0.1,10.5-0.2,15.7c-0.2,3.7-0.3,7.5-0.6,11.2
		c-0.4,4.4-0.6,8.8-1.2,13.2c-0.5,3.3-0.6,6.6-1.1,9.9c-0.6,3.9-1.1,7.9-1.7,11.8c-0.6,3.9-1.3,7.7-2,11.5
		c-0.8,4.1-1.6,8.2-2.5,12.2c-1.5,6.6-3.2,13.2-5.1,19.7c-1.6,5.4-3.2,10.9-5.1,16.2c-3,8.5-6.2,16.9-9.7,25.2
		c-3,7-6.2,13.9-9.7,20.7c-4.1,8-8.5,15.8-13.2,23.5c-3.7,6.1-7.6,12.1-11.6,17.9c-3.6,5.2-7.3,10.3-11.2,15.2
		c-3.7,4.8-7.6,9.6-11.5,14.3c-1.9,2.3-4,4.5-6,6.7c-5,5.6-10.2,11.1-15.5,16.3c-3.7,3.6-7.4,7.2-11.2,10.5
		c-5.3,4.6-10.6,9.1-16.1,13.5c-5.2,4.1-10.6,8-16.1,11.6c-0.7,0.5-1.3,0.4-2-0.1c-5-3.7-10.2-7.3-15.2-11
		c-3.6-2.8-7.1-5.7-10.6-8.6c-5-4.1-9.8-8.4-14.5-12.8c-5.4-5-10.6-10.2-15.7-15.5c-4.3-4.4-8.4-9.1-12.4-13.9
		c-5.9-7-11.5-14.2-16.8-21.7c-4.8-6.8-9.4-13.8-13.8-20.9c-2.3-3.7-4.3-7.5-6.5-11.3c-3.4-5.9-6.4-11.9-9.3-18
		c-4.3-8.9-8.1-18-11.7-27.3c-2.6-7-5-14-7.3-21.1c-2.8-8.8-5.1-17.7-7.3-26.7c-1.3-5.3-2.5-10.6-3.4-15.9c-0.9-5.4-2-10.8-2.7-16.3
		c-0.7-5-1.4-10-1.8-15c-0.3-3.3-0.7-6.6-1-9.9c-0.4-5.3-0.7-10.6-1-15.9c-0.5-8.6-0.2-17.2-0.2-25.7c0-2.9,0-5.9,0.5-8.8
		c0.1-0.7,0.3-0.9,0.9-0.8c0.2,0,0.5,0,0.7,0c4,0.2,7.9-0.2,11.9-0.4c5.6-0.4,11.1-1,16.6-1.8c7.3-1,14.5-2.5,21.6-4.2
		c10.4-2.4,20.5-5.7,30.6-9.5c9.4-3.6,18.6-7.7,27.5-12.3c9.1-4.7,17.8-9.9,26.3-15.6c5-3.4,10.1-7,14.7-11c0.5-0.4,0.9-0.7,1.6-0.1
		c3,2.6,6.2,5,9.4,7.3c4.5,3.4,9.2,6.5,13.9,9.5c4.4,2.8,8.9,5.6,13.6,8.1c2.9,1.6,5.7,3.2,8.7,4.6c7.5,3.5,15,7,22.8,9.8
		c4.6,1.7,9.2,3.3,13.9,4.8c7.8,2.4,15.7,4.4,23.7,6c5.3,1.1,10.6,2.1,16,2.7c3.6,0.4,7.2,0.7,10.8,1.1c5.7,0.5,11.3,0.6,17,0.6
		c1.1,0,1.3,0.3,1.4,1.4C408.2,129.3,408.1,132.8,408.2,136.8z M115.2,130.3c-1.4,0-2.6,0-3.8,0c-0.6,0-0.9,0-0.9,0.8
		c-0.4,3.1-0.6,6.3-0.6,9.4c0,10.2-0.3,20.5,0.5,30.7c0.2,2.3,0.3,4.7,0.4,7.1c0.1,1.4,0.1,2.8,0.3,4.3c0.4,3.6,0.8,7.2,1.2,10.8
		c0.2,2,0.4,4,0.7,6c0.5,3.1,1.1,6.1,1.6,9.2c0.7,3.9,1.1,7.9,2,11.8c1.3,6,2.7,12,4.1,18c1.8,7.6,3.9,15,6.3,22.4
		c3,9.3,6.2,18.4,10,27.4c2.4,5.7,4.7,11.3,7.4,16.9c3.1,6.4,6.3,12.7,9.8,18.9c3.4,6.1,6.9,12.1,10.7,18c4.6,7,9.3,13.9,14.5,20.6
		c2.9,3.8,5.8,7.6,8.9,11.3c3.7,4.4,7.5,8.7,11.4,13c3.8,4.1,7.6,8.2,11.7,12.1c3.8,3.6,7.7,7.1,11.6,10.6c2.6,2.3,5.2,4.7,7.9,6.9
		c3.8,3.1,7.8,6.1,11.7,9.1c4.2,3.2,8.4,6.3,12.8,9.3c0.6,0.4,0.9,0.4,1.5,0c8.7-5.6,16.8-12.1,24.8-18.8c4.7-3.9,9.2-8.1,13.6-12.3
		c7.1-6.8,13.9-14,20.4-21.3c2.1-2.3,4.2-4.7,6.2-7.1c2.8-3.4,5.5-6.9,8.2-10.4c4.1-5.2,8-10.6,11.8-16.1c3.3-4.8,6.4-9.7,9.4-14.6
		c4-6.5,7.8-13.1,11.3-19.8c4.1-7.8,8-15.8,11.4-23.9c3-7.1,5.8-14.3,8.4-21.6c3-8.3,5.5-16.8,7.9-25.3c1-3.7,1.8-7.5,2.7-11.2
		c1.1-4.2,1.9-8.5,2.7-12.8c0.6-3.1,1.3-6.1,1.7-9.2c0.6-4,1.2-7.9,1.7-11.9c0.5-4.1,1-8.2,1.5-12.4c0.4-3.8,0.7-7.6,1-11.4
		c0.4-4.6,0.6-9.2,0.7-13.7c0.1-9.9,0.2-19.7-0.3-29.6c0-1.1-0.5-1.3-1.4-1.3c-5.8,0-11.6,0-17.3-0.6c-5.1-0.5-10.3-1.2-15.4-1.9
		c-5.4-0.8-10.7-1.9-16.1-3.1c-7.5-1.7-14.8-3.9-22.1-6.3c-6.4-2.2-12.8-4.7-19-7.4c-7-3.1-13.9-6.5-20.5-10.2
		c-6.9-3.8-13.6-8-20-12.6c-4.2-3-8.4-6-12.3-9.3c-1-0.8-1.9-1.5-3.2-0.3c-3.4,3.2-7.2,5.8-11,8.5c-9.7,6.7-19.8,12.7-30.3,18
		c-8,4-16.2,7.6-24.5,10.8c-5.5,2.1-11.2,4-16.9,5.7c-5.2,1.6-10.5,2.8-15.8,4c-4.7,1.1-9.5,1.9-14.3,2.7c-4.4,0.7-8.9,1.3-13.4,1.6
		C123.8,129.8,119.4,130.4,115.2,130.3z"/>
	<path class="st1" d="M258.6,157.7c-24.3,0-48.5,0-72.8,0c-1.3,0-1.6,0.3-1.7,1.6c-0.2,2.5,0.7,4.6,1.5,6.9
		c4.5,13.7,9.1,27.4,13.7,41.1c4,11.9,7.9,23.9,11.8,35.8c0.5,1.4,0.6,3.3,1.6,4c0.9,0.7,2.8,0.2,4.2,0.2c2.6,0,2.5,0,2,2.6
		c-1,4.7-3.4,8.6-6.6,11.9c-4.4,4.5-9.9,7.2-16,8.7c-6.2,1.5-12.5,2.2-18.9,1.9c-6.8-0.3-13.4-1.5-19.5-4.6
		c-5.6-2.8-10.1-6.8-13.2-12.3c-1.3-2.3-2-4.9-2.5-7.5c-0.2-0.8,0.4-0.7,0.9-0.7c1.7,0,3.5,0,5.2,0c0.9,0,1.3-0.3,1.6-1.1
		c2.3-6,4.6-11.9,6.9-17.9c1.9-4.9,3.8-9.8,5.6-14.7c2.2-5.8,4.4-11.6,6.6-17.3c2-5.1,4-10.1,6-15.2c2.1-5.4,4.1-10.8,6.2-16.1
		c0.9-2.1,0.9-4.3,0.9-6.5c0-1-0.7-0.8-1.3-0.8c-4.9,0-9.7,0-14.6,0c-2.8,0-2.8,0-2-2.7c0.6-2.2,2.4-3.7,4.7-3.7
		c24.9,0,49.7,0,74.6,0c0.9,0,1.6-0.1,2.2-1c1.9-2.8,4.3-5.2,7.4-6.8c4.5-2.4,7.1-1.4,10.7,1.6c1.5,1.3,2.8,2.8,3.7,4.6
		c0.4,0.9,1.1,1.4,2.3,1.4c24.8,0.4,49.7,0.2,74.5,0.3c3,0,5.9,2.1,6.7,4.7c0.4,1.5,0.3,1.7-1.2,1.7c-4.5,0-9,0-13.6,0
		c-1.1,0-1.3,0.3-1.4,1.4c-0.3,2.9,1.1,5.4,1.9,8c3.7,11.5,7.5,22.9,11.3,34.4c2.8,8.5,5.7,16.9,8.6,25.4c2.1,6.3,4.1,12.6,6.2,18.9
		c0.3,1.1,0.8,1.7,2.1,1.6c1.4-0.1,2.9,0,4.3,0c0.7,0,1,0.3,0.8,1c-1.2,6.3-4.2,11.4-9.2,15.5c-5.5,4.5-11.9,6.6-18.8,7.7
		c-4.8,0.8-9.6,1.2-14.5,0.9c-8.7-0.5-17-2.5-24.1-7.7c-5.3-3.8-8.8-9-10.3-15.4c-0.4-1.7-0.1-2.1,1.6-2.1c1.4,0,2.9,0,4.3,0
		c0.8,0,1.2-0.3,1.5-1.1c3.4-9.1,7.1-18.2,10.5-27.4c2.4-6.4,5-12.7,7.5-19c2.9-7.5,5.7-15,8.5-22.4c1.8-4.8,3.7-9.6,5.6-14.4
		c0.6-1.6,0.3-3.1,0.3-4.7c0-0.5-0.3-0.6-0.7-0.6c-0.4,0-0.8,0-1.2,0C306.9,157.7,282.8,157.7,258.6,157.7z M152,247.3
		c9.6,0,19,0,28.4,0c1.4,0,1.7-0.4,1.7-1.7c0-24.7,0-49.3,0-74c0-1,0-2.1,0-3.1c-0.1,0-0.2,0-0.3,0C171.8,194.8,161.9,221,152,247.3
		z M332.7,168.4c-0.3,0.5-0.5,0.7-0.6,0.9c-3.4,9.1-6.9,18.2-10.3,27.3c-2.8,7.3-5.5,14.6-8.3,21.9c-3.4,9-6.8,18.1-10.3,27.1
		c-0.6,1.6-0.6,1.7,1.2,1.7c8.8,0,17.7,0,26.5,0c1.3,0,1.7-0.3,1.7-1.7c0-25,0-50.1,0-75.1C332.7,169.9,332.7,169.4,332.7,168.4z
		 M335.2,168.8c-0.1,0-0.2,0-0.3,0c0,0.3,0,0.7,0,1c0,25.4,0,50.8,0,76.2c0,1.1,0.3,1.4,1.4,1.4c7.1,0,14.1,0,21.2,0
		c3.6,0,3.6,0,2.5-3.4c-3-9-6-18.1-8.9-27.1c-4.2-12.7-8.4-25.4-12.6-38.2C337.3,175.3,336.2,172.1,335.2,168.8z M184.6,169.1
		c-0.1,0-0.2,0-0.3,0c0,0.7,0,1.4,0,2.2c0,24.7,0,49.4,0,74.1c0,0.3,0,0.6,0,0.9c-0.1,0.8,0.2,1.1,1,1.1c8,0,16,0,24,0
		c0.7,0,0.9-0.1,0.7-0.9c-0.7-1.9-1.2-3.9-1.9-5.9c-2.2-6.6-4.3-13.2-6.5-19.7c-2.7-8.3-5.5-16.7-8.2-25c-1.1-3.3-2.2-6.5-3.2-9.8
		C188.2,180.4,186.4,174.7,184.6,169.1z M264.8,151c-0.4-1.3-1-2.2-1.7-3.1c-2.1-2.8-5.9-4-8.3-2.7c-2,1.2-3.5,2.9-4.9,4.8
		c-0.7,1.1-0.2,1,0.5,1C255.2,151,259.9,151,264.8,151z"/>
	<path class="st1" d="M286.4,337.5c3.6,0.8,5.9-1.1,8-3.6c0.7-0.9,0.2-1.3-0.4-1.8c-4.8-4.8-10-9-15.4-13.1
		c-6.5-4.8-13.5-9.1-20.6-12.9c-1.3-0.7-2.2-0.6-3.5,0.1c-3.8,2-7.6,4.2-11.2,6.4c-4.2,2.6-8.2,5.5-12.1,8.4
		c-4.5,3.3-8.6,7.2-12.8,10.9c-0.7,0.6-1,1.1-0.3,2.2c1.6,2.2,3.5,3.6,6.4,3.5c0.5,0,1-0.1,1.6,0.3c-1.8,2-3.8,3.6-6.5,4.2
		c-2.4,0.5-4.5-0.1-6.5-1.3c-0.9-0.5-1.3,0-1.9,0.5c-4.2,4.2-8.4,8.4-12.6,12.6c-2.9,3-7.5,1.3-8.5-2.2c-0.6-2.1-0.6-4.1,0-6.1
		c0.1-0.4,0.3-0.8,0.4-1.3c0.5-1.4,1.1-2.4,2.9-1.7c1.5,0.6,2.5-0.5,3.4-1.6c1.8-2.3,4-4.2,6-6.2c0.7-0.7,0.8-1.2,0.5-2.1
		c-1.2-3.5-1.2-7,0.5-10.3c0.2-0.3,0.3-0.7,0.6-1c0.8-0.8,1.5-2.2,2.5-2.1c0.6,0,0.5,1.7,0.8,2.6c0.4,1.5,1,2.9,2.3,4
		c0.5,0.4,0.9,0.5,1.4,0c6.1-5.5,12.7-10.3,19.6-14.8c4.9-3.2,9.9-6.3,15.2-8.8c0.5-0.3,1-0.6,1.8-1.1
		c-22.7-9.5-46.1-13.9-70.7-12.2c0.7-0.9,1.6-0.7,2.3-0.8c4.7-1,9.5-2,14.4-2.3c3.8-0.3,7.6-0.8,11.4-0.6c5.3,0.3,10.6,0.6,15.9,1.5
		c4.7,0.8,9.4,1.6,14,2.9c5.4,1.5,10.8,3.2,16,5.4c1.5,0.6,2.9,1.2,4.3,1.9c1.1,0.5,2,0,2.9-0.4c7.7-3.5,15.8-6.1,24-8
		c4.8-1.1,9.6-1.8,14.5-2.4c5.8-0.7,11.6-0.7,17.4-0.5c3.5,0.1,7,0.6,10.5,1.2c3.1,0.5,6.1,1.1,9.2,2c-11.8-0.6-23.5,0.2-35.1,2.3
		c-11.6,2.1-22.9,5.3-33.9,10.1c4.2,2.4,8.2,4.5,12.1,6.9c5.4,3.4,10.7,6.9,15.8,10.8c2.9,2.2,5.6,4.5,8.4,6.7
		c0.6,0.5,1,0.4,1.5-0.1c1.7-1.6,2.2-3.7,2.6-5.8c0.1-0.3-0.2-0.8,0.3-0.9c0.4-0.1,0.6,0.3,0.8,0.5c3.9,3.5,4.5,7.9,3,12.7
		c-0.3,1.1-0.3,1.9,0.6,2.7c2.2,2.1,4.3,4.4,6.4,6.7c1,1.1,2,1.5,3.4,0.8c0.4-0.2,0.9-0.5,1.3,0.1c2,3.2,2.6,7.9,0.1,11.1
		c-1.8,2.2-4.9,2.4-6.9,0.4c-4.4-4.3-8.7-8.7-13-13.1c-0.7-0.8-1.2-0.7-2.1-0.2C294.6,343.5,289.1,341.8,286.4,337.5z M298.4,331.9
		c0,1.9,1.5,3.8,3.6,4.5c1.7,0.5,3.5-0.8,3.5-2.5c0-1.7-1.8-4-3.5-4.6C299.8,328.6,298.4,329.6,298.4,331.9z M206.9,333.9
		c-0.3,1.6,1.3,3.3,3.2,2.8c1.9-0.5,3.6-2.6,3.7-4.5c0-1.9-1.4-3.1-3.2-2.8C208.7,329.7,206.9,331.9,206.9,333.9z M308.4,326.4
		c0-1.2-0.7-2.1-1.7-2.5c-0.8-0.3-2.2,1-2.7,2.3c-0.5,1.3,0,2.7,1.1,3.2C306.6,330.1,308.4,328.5,308.4,326.4z M208.3,327.5
		c0-1.9-1-3.3-2.3-3.4c-1.4-0.1-1.9,1-2.1,2.1c-0.2,0.8,0.2,1.6,0.6,2.3c0.5,0.8,1.3,1.6,2.3,1.3
		C207.7,329.5,208.6,328.7,208.3,327.5z M299.4,337.2c0-1.4-2.1-2.7-3.7-2.4c-0.9,0.2-1.7,0.7-1.9,1.6c-0.2,0.9,0.5,1.4,1,1.9
		c0.6,0.5,1.3,0.7,2,0.8C298,339.4,299.4,338.2,299.4,337.2z M216.1,335c-1.4-0.1-2.5,0.4-3.2,1.7c-0.4,0.8,0,1.6,0.5,2
		c1.1,0.8,2.3,0.7,3.5,0.1c0.9-0.5,1.7-1.1,1.5-2.2C218.2,335.4,217.2,334.9,216.1,335z"/>
	<path class="st2" d="M269.1,200.5c4.2,4.8,4.4,12.1-0.4,17.8c-0.4-0.2-0.3-0.5-0.2-0.9c0.8-4.5-0.2-8.6-3.5-11.9
		c-1.4-1.4-3.1-2.6-5.2-2.9c-0.7-0.1-1.3-0.1-2-0.2c0-0.3-0.1-0.8-0.4-0.7c-1.5,0.3-3.1-0.5-4.5,0.6c-4.2,1.1-6.9,3.9-8.6,7.8
		c-0.7,1.5-1,3.2-1.2,4.8c-0.1,1.1,0.3,2.2,0.3,3.4c-1.8-2.7-2.9-5.6-3-8.9c-0.1-3.4,1-6.3,3.1-9.4c-3.8,1.8-6.9,4-9.6,6.5
		c-2.8,2.6-5.1,5.5-6,9.8c-1.8-6.2,1.1-13.7,7.2-19.2c-3.1,0.9-5.8,1.9-8.5,3.2c-2.7,1.4-5.1,3-6.7,5.9c-0.1-4.1,3.1-12.3,10.7-15.9
		c-1.9-0.2-3.4,0.3-4.9,0.6c-1.6,0.3-3.1,0.7-4.6,1.3c-1.5,0.6-2.9,1.4-4.4,2c1.1-2.2,3.1-3.5,4.8-4.9c3.6-2.9,7.7-4.5,12.1-5.4
		c0.7-0.1,1.4,0,2.1-0.1c0.3,0,0.7,0.1,1-0.3c0.3-0.4-0.2-0.6-0.4-0.8c-3.5-4.6-8.3-7.4-13.6-9.4c-0.4-0.1-0.7-0.3-1-0.6
		c8.6-1.4,16.9-1.2,23.6,5.5c0.5-2.2-1.5-9.8-3.9-14.9c4.6,2.1,7.9,5.3,10.5,9.7c0.4-2.6,0.6-4.9,1.1-7.2c0.4-2.1,0.8-4.3,2.2-6.1
		c0.2-0.3,0.3-0.8,0.8-0.7c0.4,0.1,0.4,0.5,0.5,0.8c1.3,3.6,2.6,7.1,2.8,11c0,0.3,0.1,0.8,0.5,0.8c0.3,0,0.4-0.4,0.5-0.6
		c2.1-3.5,5.4-6.2,9.9-7.9c-2.1,5.2-4,10.3-4.5,16c7.1-6.2,15.2-8,24.2-6.2c-1.5,0.7-3,1.3-4.4,2.1c-3.4,1.7-6.7,3.8-9.3,6.6
		c-0.2,0.2-0.4,0.3-0.5,0.5c-0.3,0.5-0.9,0.9-0.7,1.4c0.2,0.6,1,0.3,1.5,0.3c2.6,0.1,5.1,0.8,7.5,1.7c3.6,1.3,6.8,3.4,9.5,6.2
		c0.9,0.9,1.8,1.8,2.4,3.4c-2.5-1.6-4.8-2.8-7.3-3.6c-2.5-0.8-5-1.6-8.1-1.5c6.2,3.6,10.4,8.4,11.4,15.5c-4.1-4.3-8.5-7.9-15.2-8.5
		c6.2,5.2,9.3,11.2,6.8,19.4c-2-8.1-7.5-12.7-14.3-16c-0.1-0.1-0.3-0.2-0.4,0C268.9,200.4,269,200.5,269.1,200.5z"/>
	<path class="st3" d="M257.9,202.5c0.7,0.1,1.3,0.1,2,0.2c0,0.7-0.1,1.5-0.1,2.2c0,24,0.1,47.9-0.1,71.9c0,3,1.3,5.1,3.1,7.2
		c1.1,1.3,2.4,2.2,3.9,2.9c0.3,0.1,0.6,0.2,0.6,0.6c-7.4,0-14.8,0-22.3,0c-0.1-0.4,0.2-0.4,0.4-0.6c3.2-1.6,5-4.4,6.5-7.4
		c0.5-0.9,0.5-2.1,0.5-3.1c-0.2-16.9,0.6-33.8,0.4-50.6c0-0.5-0.3-1.1,0.3-1.5c0.1,0.1,0.2,0.1,0.2,0c0,0,0-0.1,0-0.1
		c0-6,0-12.1,0-18.1c0-3.4,0-3.4,3.4-3.5C257.1,202.5,257.5,202.5,257.9,202.5z"/>
	<path class="st4" d="M185.4,147.2c-0.9,0.4-1.6,1.1-2.8,1.3c-3.7,0.7-6.1-2.2-6.7-5.1c-0.9-4.2,0.9-7.7,3.1-11
		c0.3-0.5,1.5-1-0.1-1.6c-0.5-0.2-0.2-1.2-0.1-1.8c0.1-0.5,0.7-0.3,1-0.3c0.7,0.1,1.7-0.4,2,0.4c0.2,0.6-0.1,1.4-0.6,2.2
		c-1.2,1.9-2.7,3.6-3.5,5.8c-0.8,2.4-0.8,5.9,1.1,7.5c2.1,1.8,4.1,1.6,5.7-0.9c0.8-1.4,1.1-2.9,1-4.5c0-0.5-0.2-1-0.5-1.2
		c-1.2-0.5-1.1-1.3-0.8-2.4c0.4-1.3,0.7-1.5,1.7-0.7c1.4,1.1,1.4,1.1,2.2-0.6c0.2-0.5,0.6-1,1.2-0.9c0.8,0.2,0.5,1,0.4,1.4
		c-0.3,1,0,1.9,0.4,2.8c0.1,0.3,0.3,0.6,0.7,0.6c0.5,0.1,0.6-0.4,0.6-0.7c0.3-1.1,1.2-2,1.4-3c0.4-1.7,0.9-3.5,0.7-5.4
		c-0.2-1.4-0.5-2.8-1.7-4.4c0.1,1.4-0.2,2.5,0.3,3.5c0.1,0.2,0.1,0.5-0.2,0.6c-0.3,0.1-0.3-0.2-0.5-0.4c-0.5-0.6-0.1-1.3-0.4-2
		c-0.5-1.4-0.8-6.1-0.6-7.4c1.8,2.5,3.7,4.6,4.3,7.5c0.3,1.7,0.3,3.3-0.3,4.9c-0.1,0.2-0.1,0.5,0.2,0.6c0.3,0.1,0.4-0.2,0.6-0.3
		c1.1-0.7,2.3-1.4,3.8-1c2.1,0.6,2.5,1.4,1.9,3.6c-1,3.5-3.6,5.1-6.8,6.1c-0.3,0.1-0.7,0.2-1,0.3c-0.5,0.1-1.5-0.1-1.3,0.8
		c0.2,0.8,0.4,1.7,1.6,1.8c1.4,0.1,2.6-0.4,3.8-1c0.8-0.5,1.6-1,2.4-1.4c0.5-0.3,1.1-0.7,1.6-0.3c0.5,0.4-0.3,0.9-0.1,1.4
		c1.4,0.3,2.3-0.3,3-1.5c0.2-0.4,0-1.3,0.8-1.2c0.6,0.1,0,0.9,0.4,1.3c1.2-0.1,2.2-0.4,2.6-1.8c0.1-0.4,0.7-0.5,0.8,0
		c0.1,0.4,0.2,0.8,0.7,0.6c0.4-0.2,0.8-0.3,0.9-1c0.2-1.1,0.3-2.2,1-3.2c0.8-1.3,2.1-1.3,2.9-0.1c0.5,0.7,0.8,0.6,1.1,0
		c0.2-0.4,0.5-0.8,0.4-1.2c-0.2-2.3,0.5-4.6,0.3-6.9c-0.2-2.2-0.7-4.3-1.9-6.4c-0.2,1.7,0.2,3.1,0.4,4.5c0.1,0.4,0.4,0.8-0.2,1
		c-0.3,0.1-0.6-0.3-0.7-0.7c-0.3-2-0.9-3.9-0.9-5.9c0-1.1-0.5-2.1-0.3-3.2c0.1-0.8,0.3-1,1-0.6c1.4,0.7,2.1,2,2.7,3.4
		c1.7,4,1.9,8.1,0.8,12.3c-0.1,0.3,0,0.6,0,0.9c1-0.3,0.9-1.7,2.2-1.8c0.8-0.1,1,0,1,0.7c0.1,1-0.1,1.9-0.9,2.6
		c-2.3,2.1-4.1,4.7-6.6,6.6c-1.4,1.1-2.7,2-4.5,2.2c-0.6,0.1-1.2,0.5-1.7,0.6c-2.4,0.6-4.7,2.4-7.4,1.5c-0.5-0.2-0.7,0.1-1,0.3
		c-1.5,0.7-3.1,1.2-4.8,1.1c-2-0.2-3-1.4-3.2-4c0-0.6,0-1-0.8-1.2c-0.8-0.2-1.3-1.1-1.5-1.9c-0.1-0.2,0.2-0.7-0.3-0.6
		c-0.4,0-0.6,0.3-0.6,0.7c0,1.1,0.3,2.1,0.1,3.3c-0.2,1-0.4,2-0.7,3c0.9,0.4,1.7-0.1,2.4-0.3c0.9-0.2,1.4-0.5,0.9,0.8
		c-0.2,0.5,0.3,1.3-0.6,1.6c-1.1,0.4-2.2,0.8-3.4,0.5c-0.3-0.1-0.1-0.4-0.1-0.7c0.4-0.2,0.2-0.5,0.2-0.7
		C185.7,146.9,185.6,147.1,185.4,147.2z M194,137.4c1.5-0.3,2.7-1,3.7-2.2c0.4-0.5,1.1-1.1,0.6-1.6c-0.5-0.6-1.2,0.1-1.6,0.5
		C195.5,135.1,194.7,136.2,194,137.4z"/>
	<path class="st4" d="M255.7,121c0.3-0.3,0.2-0.7,0.2-1.1c-0.5-3.9,0.5-7.1,3.7-9.5c0.6-0.4,0.5-0.9,0.5-1.5
		c-0.3-3.8-0.4-7.6-0.3-11.4c0-0.4-0.3-1,0.6-1.1c0.6-0.1,1.1,0.1,1.2,0.7c0.7,2.9,2.7,5,4.4,7.3c2.8,3.6,6,7.1,6.9,11.7
		c0.8,4,1.1,8.1-2,11.5c-1.8,2-4.1,2.6-6.7,2.5c-2.1-0.1-4.1-0.7-5.1-2.3c-1.2-2-3.7-2.2-4.8-4.2c-0.5-0.9-1,0.4-1.1,0.7
		c-0.4,1.5-0.7,3.1-1,4.7c-0.3,1.4-0.5,3-2.3,3.2c-2.2,0.3-4.1-0.8-5.2-2.7c-2-3.6-1.8-7.3-0.6-11.2c1.3-4.4,4.2-7.7,6.7-11.4
		c2.1-3,4-6.1,4.6-9.8c0-0.3-0.1-0.7,0.4-0.6c0.4,0,0.7,0.4,0.6,0.7c-0.1,0.9-0.2,1.8-0.5,2.7c-0.1,0.3-0.4,0.6-0.2,0.9
		c0.2,0.3,0.5,0.1,0.8-0.1c0.5-0.3,0.8,0.1,0.9,0.4c0.2,1.2,0.5,2.3,0.4,3.5c0,0.4-0.3,0.8-0.6,0.7c-0.6-0.1,0-0.5-0.1-0.7
		c-0.2-0.8-0.5-1.6-0.9-2.3c-0.4-0.6-0.8-0.4-1.1,0.2c-3.1,5.5-6.7,10.8-9,16.7c-0.9,2.2-1.7,4.6-0.8,7.1c0.5,1.3,1.1,2.7,2.5,3.3
		c1,0.4,1.7,0.2,2.2-0.9c0.8-1.9,0.9-4,1.8-5.8c0.2-0.4,0.4-0.9,0.6-1.3C253,119.7,253.4,119.6,255.7,121z M260.7,113.3
		c0.6,0,0.7,0.5,0.7,0.9c0,1.7,0.6,3.3,0.9,5c0.1,0.7,0.5,1.1,1.1,1.2c2.4,0.3,4.3-0.8,3.5-3.8c-0.2-0.7-0.5-1.3-0.9-1.8
		c-1.2-1.8-4-2.6-5.6-1.7c-0.4,0-0.7,0.3-1,0.5c-2.3,2.3-2.4,5.1-2.1,8.1c0.2,1.4,1.2,1.7,2.4,0.9c0.7-0.5,1-1.2,1-2
		c0.1-1.4-0.2-2.6-0.7-3.8C259.5,115.3,259.7,114.2,260.7,113.3z M261.1,101.6c0,2.4,0,4.9,0,7.3c0,0.5-0.1,0.7,0.7,0.7
		c3,0,5.1,1.7,6.4,4.3c0.9,1.9,1.5,4.1,0.6,6.1c-1.2,2.6-3.1,3.4-6.1,2.8c-0.4-0.1-0.5-0.2-0.7,0.3c-0.5,1.1-1.1,2.2-2.3,2.6
		c2.4,2,5,2.3,7.5,0.8c3.6-2.2,5.1-7.7,3.4-11.4C268.2,110.1,264,106.3,261.1,101.6z"/>
	<path class="st4" d="M246.5,376.7c-0.2-1-0.2-1.9,0.3-2.8c0.4-0.8,0-1-0.7-0.8c-1.9,0.5-3.7,0.4-5.5,0c-1.3-0.3-2.5,0.4-3.8,0.4
		c-0.7,0-0.5,0.8-0.7,1.3c-1-0.4,0-1.4-0.9-1.7c-0.6-0.2-1.2-0.6-1.7-0.9c-1.7-1.2-2.5-3.1-2.7-5c-0.1-1.6-0.4-3.2-0.4-4.9
		c0-4.5-0.6-8.8-2.1-13.1c-0.4-1.1,0-2,0.3-2.8c0.3-0.8,0.7-0.1,0.9,0.2c0.7,1.3,1,2.7,1.3,4.1c1,4.2,1,8.5,1.3,12.8
		c0.2,2.7,0.6,5.6,3.9,6.7c0.5,0.2,0.7,0.3,1-0.3c1.1-2.2,1.4-4.5,1-7c-0.4-2.2-0.5-4.5-0.8-6.7c-0.5-2.9-0.1-5.9-1.2-8.6
		c-0.3-0.8,0.2-1.6,0.9-2.2c0.4-0.4,0.8,0,0.9,0.3c0.6,1.4,1.2,2.9,1.7,4.3c0.1,0.3,0.3,0.9-0.6,0.8c-0.7,0-0.3,0.6-0.3,0.9
		c0,2.5,0.4,4.9,0.7,7.3c0.3,2.4,0,4.8,0.3,7.2c1.9-1.7,3.8-3.6,6.6-3.8c1.5-0.1,2.9,0.3,4,1.5c0.9,1,0.3,2.1,0,3
		c-0.3,1-0.9,1.9-1.5,3c3.3-0.5,6.2-1.8,9.2-2.7c0,0,0.1-0.1,0.1-0.1c3.3-1.2,3.2-1.2,2.4-4.5c-0.7-2.7-0.8-5.6-1.2-8.4
		c-0.3-1.8-0.1-3.6-0.6-5.4c-0.1-0.5-0.1-1.1,0-1.6c0.1-0.7,0.4-1.5,1-1.6c0.5-0.1,0.5,0.8,0.7,1.3c0.7,1.4,1,3,1.5,4.4
		c-0.6,0.3-0.7-0.4-1.2-0.3c0.2,2,0.3,4,0.7,5.9c0.4,2.5,0.6,5.1,1.1,7.6c0.2,0.8,0.5,0.9,1.1,0.9c0.4,0,0.8,0,1.2,0
		c2.3,0.4,3.6,2.7,2.7,5c-0.2,0.6-0.5,1.1-1.4,1.1c-1.8,0-3.3-0.4-4.1-2.2c-0.3-0.7-0.6-0.7-1.2-0.5c-3.1,1.1-6.1,2.5-9.4,3.1
		c-0.8,0.1-1.5,0.5-2.3,0.5c-1.5-0.1-1.4,1.1-1.6,2c0,0.2,0.1,0.4,0.1,0.6c0.9-0.4,0.9,0.1,0.6,0.7
		C247.8,376.7,247.2,376.9,246.5,376.7L246.5,376.7z M239.9,370.5c1.9-0.3,3.9-0.6,5.8-1.4c1-0.4,2.1-0.9,2.8-1.7
		c0.3-0.4,0.4-0.6,0-1c-0.9-1-2.7-1.5-4-1.1c-2.2,0.7-4.2,1.8-5.4,3.9c-0.2,0.4-0.9,0.6-0.7,1C238.7,370.8,239.3,370.4,239.9,370.5z
		 M264,368.4c0.6,0.5,1.2,0.7,1.9,0.6c0.1,0,0.2-0.3,0.2-0.3c-0.5-0.4-1.1-0.4-1.7-0.5C264.3,368.2,264.2,368.3,264,368.4z
		 M238.3,350.5C238.2,350.6,238.2,350.6,238.3,350.5c-0.1,0.2,0,0.2,0,0.3c0,0,0.1-0.1,0.1-0.1C238.3,350.7,238.3,350.6,238.3,350.5
		z"/>
	<path class="st5" d="M302.1,140.2c-1.3,0.2-1.3,1.3-1.3,2c-0.3,3.1-4.1,5.7-7,5.6c-0.8,0-1.7,0-2.5,0c-0.3,0-0.8,0.1-0.8-0.4
		c-0.1-0.5,0.3-0.5,0.6-0.6c4.2-1.2,5.4-2,8-5.7c-0.4-0.6-1.1,0-1.6-0.4c-0.8-0.6-1.1-1.4-0.9-2.4c0.3-1.2,0.6-2.5,1.9-2.9
		c1-0.3,1.6,0.6,2.1,1.3c0.3,0.4,0.4,0.9,1,0.8c0.6-0.1,0.7-0.7,0.9-1.1c0.5-1.3,1.4-2.5,1.6-3.7c0.4-2.8,2.3-5.3,1.7-8.3
		c-0.3-1.3-1-2.3-2.2-3.3c0.1,1.7,0.8,3.1,0.5,4.7c-1.1-1-2.6-8.2-2.3-10.3c3.9,3.7,6,8,5.1,13.4c0.9,0,1.4-0.5,2.1-0.5
		c1.3,0,2.7,0.1,3.3,1.2c0.5,1.1,0.3,2.6-0.5,3.8c-1.6,2.5-3.9,4.1-6.5,5.3c-0.5,0.2-1.5,0.1-1.2,1.1c0.4,1,1.2,1,2,0.5
		c1-0.7,1.9-1.5,2.9-2.2c0.9-0.7,1.3-0.5,1.5,0.7c1.5-0.1,2.1-1.2,2.5-2.3c0.3-0.9,0.7-0.8,1.1-0.3c1.2,1.4,1.2,0.1,1.4-0.6
		c0.1-0.3,0-0.6,0.1-0.9c0.2-0.3,0.6-0.8,0.8-0.1c0.4,1.1,0.9,0.7,1.3,0.1c0.5-0.8,1.4-1.5,1.5-2.6c-2.7-0.1-3.2-1.2-1.9-3.8
		c0.6-1.1,1.4-1.2,2.3-1.1c1,0.1,1.1,1.1,1.2,1.7c0.2,2.8,0,5.6-1.7,8c-0.3,0.5-0.7,0.8-1.2,1c-0.7,0.4-1.6,0.5-2,1.4
		c0,0.1-0.2,0.2-0.2,0.2c-2.1-0.3-3.1,2-4.9,2.3c-0.2,0-0.4,0.3-0.5,0.2c-1.7-1-2.8,0.5-4.1,1.1
		C304.4,144.3,302.5,143.3,302.1,140.2z M304.3,136.5c2.1-0.7,3.7-2.1,5.1-3.7c0.3-0.3,1.2-0.6,0.7-1.2c-0.4-0.5-1.1-0.8-1.9-0.5
		C305.8,132.2,305.2,134.5,304.3,136.5z"/>
	<path class="st4" d="M222.1,142.4c2.2-0.4,3.6-1.4,4.7-2.9c1.1-1.5,2.2-3.2,3.7-4.4c0.6-0.5,1.4-1.5,1.8,0.3
		c0.2,0.8,0.8,0.4,1.2,0.2c1.7-0.9,2.6-2.4,3.2-4.3c-1.1,0.4-2,0.9-3,1.5c-1,0.6-1.6,0.3-1.4-0.8c0.3-2.9,1.1-5.7,3-8
		c0.9-1,3.3-1.4,4.5-0.8c1,0.5,0.4,1.5,0.5,2.2c0.1,0.7-0.6,0.5-1,0.5c-1.9,0-3.1,1.1-4,2.6c-0.1,0.2-0.1,0.5,0,0.7
		c0.2,0.3,0.4,0,0.6-0.1c0.1,0,0.2-0.1,0.3-0.1c0.7-0.3,1.4-0.9,2-0.5c0.6,0.4,0.3,1.4,0.2,2.1c-0.5,2.6-1.1,5-3.2,6.9
		c-0.9,0.8-1.9,1.2-2.9,1.6c-1,0.4-0.8-0.7-1.1-1.1c-1.6,1.6-2.7,3.4-4.3,4.9c-1.7,1.7-3.7,2.5-6.1,1.7c-0.9-0.3-1.5-0.1-2.2,0.2
		c-2.5,0.8-5,1.6-7.7,0.8c-0.2-0.1-0.4-0.3-0.7-0.4c2.3-0.7,4.6-1.2,6.7-2.1c0.9-0.4,1.5-0.7,1.3-2c-0.5-3.4,1.4-6.1,3.4-8.6
		c0.7-0.9,1.4-1.9,2.3-2.7c0.4-0.3,0.5-0.8,0.3-1.2c-0.8-2.2-1.7-4.5-2.7-6.9c-0.3,2.2,0,4.1,0.2,6.1c0,0.3,0.3,0.9-0.4,0.9
		c-0.6,0.1-0.5-0.5-0.6-0.8c-0.6-1.3-0.3-2.7-0.5-4.1c-0.3-2.2-0.4-4.4-0.7-6.6c-0.1-0.5-0.5-1.4,0.5-1.6c0.8-0.2,1.2,0.4,1.5,1.1
		c1.5,3.1,2.7,6.3,3.8,9.6c0.1,0.3,0.3,0.7,0.5,1.1c0.5-0.8,0.8-1.6,1.3-2.2c0.2-0.3,0.2-0.9,0.7-0.7c0.5,0.2,0.4,0.8,0.3,1.2
		c-0.4,1.1-0.8,2.3-1.4,3.3c-0.3,0.6-0.5,1.1-0.4,1.7c0.5,2.7,0,5.3-0.9,7.8C224.7,140,223.5,141,222.1,142.4z M224.9,131.8
		c-0.3-0.1-0.5,0.1-0.7,0.3c-1.8,2.4-3.6,4.8-4.2,7.9c-0.1,0.3-0.5,0.7,0,1c0.5,0.2,0.6-0.2,0.8-0.4
		C223.3,138,224.3,135,224.9,131.8z"/>
	<path class="st4" d="M285.6,125.6c-0.3,1.2,0.9,2.3-0.1,3.7c-0.8-1.6-1-3.2-1.3-4.7c-0.4-2-1.1-4-1.1-6.1c0-0.3-0.2-0.8,0.3-0.9
		c0.3-0.1,0.5,0.3,0.7,0.5c2.6,2.3,3.7,5.4,4.4,8.7c0.7,3.3,1.1,6.5,0,9.8c-0.1,0.2,0,0.4,0.1,0.6c0.4,1.2,0.5,2.3-1.1,3.4
		c1.9-0.4,2,0.6,1.9,1.6c3.1-1.5,4.6-2.7,4.4-6.6c-0.1-3-0.6-5.8-1.7-8.6c0.1,1.8,0.4,3.5,0.2,5.3c0,0.3,0.2,0.8-0.3,0.8
		c-0.5,0-0.3-0.5-0.3-0.8c-0.4-2.9-0.9-5.7-1.3-8.6c-0.1-0.5-0.3-1.1,0.3-1.4c0.7-0.3,1,0.4,1.2,0.7c1.4,2.1,2.6,4.3,3.1,6.7
		c0.8,3.3,0.9,6.7-0.1,10c-1.3,4.1-4.8,6-8.7,6.5c-1.5,0.2-3,0.5-4.5-0.3c1.1-0.9,2.5-1,3.7-1.5c1.2-0.5,1.5-1.2,0.9-2.4
		c-0.3-0.6,0-1.1,0.2-1.9c-1.6,0.7-2.8,1.7-4.4,2c-1.9,0.4-3.8,0.6-5.7,0.5c-0.5,0-0.8-0.2-0.9-0.8c0-0.7,0.5-0.5,0.8-0.5
		c3-0.2,5.4-1.7,7.7-3.5c0.5-0.4,0.9-0.9,1.4-1.3c1.6-1.5,2.5-3.2,2-5.5c-0.4-1.8-0.6-3.7-1.5-5.4c-0.2-0.8-0.4-1.6-1.3-2.4
		C285.3,124.2,285.1,125,285.6,125.6z"/>
	<path class="st5" d="M246.4,376.7c1.1,0.9,2.4,0.6,3.4,0.3c1.7-0.5,3.6,0.4,5.1-0.9c6.1,0.2,11.5-2.4,17-4.7
		c0.9-0.4,1.7-0.8,2.5-1.3c1.9-1.2,2-1.5,0.9-3.7c-0.6-1.3-0.9-2.6-1.5-3.9c-0.3-0.7,0.3-1.7,0.9-2.3c0.3-0.2,0.9,0.4,1.2,1
		c0.2,0.4,0.6,0.7,0.9,1c0.3,0.2,0.3,0.7,0.2,0.8c-1.4,0.6-0.3,1.3-0.1,1.9c0.6,1.4,0.5,2.6,0.1,4c-1.3,3.8-4.6,5.2-7.8,6.6
		c-3.1,1.3-6.2,2.4-9.5,3.2c-5.1,1.2-10.3,1.5-15.6,1c-4.9-0.5-9.6-1.4-14.2-3c-1.6-0.5-3-1.4-4.2-2.5c-0.5-0.4-0.9-1-1.7-0.9l0,0
		c0.1-0.1,0.2-0.1,0.2-0.2c-0.1-0.5-1.1-0.8-0.7-1.2c0.5-0.5,1.2,0.1,1.7,0.4c4.3,2.6,9.1,3.2,13.9,4
		C241.5,376.6,244,377,246.4,376.7C246.5,376.7,246.4,376.7,246.4,376.7z"/>
	<path class="st5" d="M221,366.9c2.4-1.1,1.1-3,0.9-4.5c-0.3-2.4-0.4-4.7-0.8-7.1c-0.4-2-0.1-4.1-0.9-6.1c-0.1-0.3-0.2-0.7-0.1-1
		c0.2-0.6,0.4-1.5,0.9-1.6c0.7-0.1,0.8,0.7,1.1,1.3c0.4,1.2,1,2.3,1.6,3.5c0.2,0.4,0.5,1,0.1,1.2c-0.3,0.2-0.9,0-1.1-0.6
		c-0.1,3.7,0.5,7.3,1.1,10.8c0.1,0.3,0.1,0.7,0.1,1c0,0.9,0.4,1.2,1.3,1.1c0.7-0.1,1.4,0,2.2,0.2c1.2,0.4,1.8,1,1.7,2.3
		c0,0.5,0,1,0,1.5c0,0.9,0.2,1.9-0.9,2.4c-1.2,0.5-2.2,0.1-3.2-0.5c-0.3-0.2-0.6-0.5-0.9-0.8c-0.4-0.5-0.7-1.5-1.2-1.5
		c-0.6,0-1.3,0.6-1.9,1c-1.9,1.3-3.5,2.8-5.1,4.4c-1.2,1.3-2.7,2.1-4.7,2.1c-2.3-0.1-4.1-2.2-3.6-4.5c0.4-2.1,1-4.1,2.4-5.8
		c0.3-0.3,0.4-0.7,0.4-1.1c-0.1-1.6,0.4-3,1.2-4.3c0.3-0.5,0.5-1.8,1.1-1.4c0.8,0.4-0.1,1.3-0.4,1.9c-0.4,0.8-0.6,1.5-0.7,2.3
		c0,0.3,0,0.5,0.1,0.7c0.1,0.3,0,0.6,0.4,0.7c0.4,0.1,0.5-0.1,0.6-0.5c0-0.4,0.2-0.5,0.6-0.5c0.4,0.1,0.3,0.4,0.3,0.7
		c0.2,1.9-0.4,2.5-2.3,2.2c-0.4-0.1-0.6,0.1-0.8,0.4c-1,1.4-1.6,3-1.9,4.7c-0.2,0.8,0.3,1.7,1,2.2c0.9,0.7,1.9,0.5,2.8-0.1
		c1.6-1.2,3.1-2.4,4.5-3.8c1.2-1.2,2.5-2.3,4-3.1L221,366.9z M227.9,368.7c-0.7-0.6-1.3-1.1-2.2-0.7
		C226.3,368.5,226.8,369.2,227.9,368.7z"/>
	<path class="st4" d="M296,394.1c0.1,0.5-0.1,0.8-0.6,1c-0.9,0.4-1.9,0.9-2.7,1.5c0,0-0.1,0-0.1,0c-1.6-0.5-2.2,1.2-3.5,1.6
		c-0.9,0.3-1.7,1-2.7,0.2c-0.5,0.8-1.4,0.6-2.1,0.8c-0.7,0.3-1,0.2-1.2-0.8c-0.3-1.3-0.3-2.3,0.5-3.3c0.6-0.7,0.4-1.5,0-2.1
		c-0.4-0.5-1.1-0.6-1.6,0.3c-0.4,0.7-1.1-0.1-1.8-0.1c-0.5,0,0-0.5,0-0.8c0.1-0.7,0.3-1.2,1.1-1.1c0.2,0,0.5,0.2,0.7,0
		c1.2-1.4,1.7-0.6,2.3,0.6c0.5,1,1.2,2,1.8,3c0.8,1.5,1.8,0.6,2.7,0c-0.4-0.3-0.8-0.4-1.3-0.5c-0.9-0.3-1.4-0.9-1.4-1.8
		c0-1-0.2-2.1,1-2.6c0.4-0.2,0.6-0.5,0.9-0.7c0.4-0.2,0.6-1.2,1.2-0.6c0.5,0.5,0.7,1.3,0.2,2c0,0-0.1,0.1-0.1,0.1
		c-0.4,0.6-1.6,1.1-1,1.7c0.8,0.8,2.1,1.3,3.3,1.3c0.6,0,0.7-0.4,0.3-1c-0.6-1-1.9-1.7-1.7-3.2c0-0.4-0.2-0.9,0.2-1.1
		c0.5-0.2,0.6,0.4,0.9,0.7c0.6,0.8,1.2,1.7,1.6,2.6c0.1,0.3,0.4,0.8,0.9,0.6c0.4-0.1,0.5-0.5,0.5-1c0-0.4-0.1-0.9,0.1-1.3
		c0.2-0.5,0.3-1.1,1-1.1c0.6-0.1,0.9,0.2,1.1,0.7c0.3,0.4,0.7,0.7,1.3,0.6c0.6-0.2,0.3-0.7,0.3-1.1c0.1-0.3,0-0.7,0-1
		c0-0.6,0.4-0.9,0.8-1.2c0.5-0.3,0.8,0,1.2,0.3c0.3,0.3,0.6,0.5,1,0.6c0.6,0.1,0.9-0.2,1.2-0.5c0.5-0.4,0.1-0.7-0.2-1
		c-0.5-0.5-0.9-1.2-1.6-1.5c-0.6-0.2-0.7-0.6-0.6-1.2c0.1-0.8-0.5-1.7,1.2-0.9c1.1,0.5,1.4,1,1.6,1.9c0.3,1.1,1.5,1.5,1.9,2.6
		c0.5,1.1,0.6,1.9-0.7,2.5c-0.6,0.3-1.5,0.5-1.6,1.6c0,0.5-0.6,0.2-1,0.1c-0.7-0.2-1.4-0.5-1.6,0.8c-0.2,1.3-1.9,1.8-3.5,1.5
		c-0.2-0.1-0.3-0.1-0.5,0C295.8,394,295.9,394.1,296,394.1z"/>
	<path class="st5" d="M302.1,304.3c0.5-0.3,0.5-1.1,1.4-1.3c-0.1,1.7,0.3,3.3-0.3,5c-0.2,0.6-0.5,0.9-1.1,0.9
		c-4-0.1-7.9,0.2-11.9-0.2c-0.9-0.1-1.8,0.1-2.7,0.2c-0.9,0-1.6,0-1.7-1.2c-0.7,0.7-3.8,0.7-3.9,0c-0.1-1.2-0.1-2.6,0.9-3.5
		c1.1-1,1.9-2.1,2.3-3.5c0.2-0.4,0.6-0.3,0.9-0.3c0.3,1.5,0.6,2.9,0.8,4.4c0.2,1.4,1.3,0.8,2.1,0.9c0.9,0.1,0.7-0.6,0.7-1.1
		c0-0.2,0-0.4,0-0.6c0.2-0.9,0.8-1.6,1.5-1.6c0.5,0,0.6,1,0.5,1.6c-0.2,1.3,0.2,1.9,1.6,1.7c0.4-0.1,0.9,0,1.3,0
		c1.7,0.1,3.3,0.2,3.8-1.9c0.1-0.3,0.2-1.1,0.8-0.8c0.6,0.3,0.3,0.8,0.1,1.3c-0.1,0.4-0.2,0.9-0.2,1.3c0.6,0.2,1.1,0.2,1.2-0.7
		c0-0.7,0.4-1.2,0.9-1.6c0.2-0.2,0.4-0.3,0.6,0c0.1,0.1-0.1,0.4-0.1,0.6c-0.3,0.6-0.1,1.1,0,1.7C301.9,305.1,302,304.7,302.1,304.3z
		"/>
	<path class="st4" d="M286.4,372.6c-0.1-0.2-0.3-0.1-0.5,0c-3.2,2.7-6.8,5.1-12,5.6c-0.8,0.1-1.5,0.4-2.2,0.7
		c-0.3,0.1-0.6,0.6-0.8,0c-0.1-0.4,0.1-0.6,0.5-0.8c1.5-0.9,3.2-1.5,4.7-2.2c3.8-1.8,7.3-4.1,10.8-6.5c0.5-0.4,0.9-0.9,0.6-1.5
		c-0.2-0.7-0.8-0.2-1.3-0.2c-0.7-0.1-1.5-0.1-2.2,0c-1.2,0.1-1.6-0.7-1.9-1.5c-0.4-1,1.1-3.8,2.2-4.2c1.2-0.5,2.8,0,3.5,1.2
		c0.3,0.4,0.4,0.9,0.8,1.2c0.5,0.4,0.9-0.1,1.3-0.4c0.4-0.2,0.4-0.6,0.1-1c-1-1.4-1.5-3-2.3-4.5c-0.5-1-0.1-1.8,0.4-2.4
		c0.7-0.8,1.3,0.2,1.6,0.7c0.5,0.7,1.9,1.2,0.9,2.5c-0.1,0.1,0.2,0.4,0.3,0.6c1.1,2.1,1,4.1-0.3,6.1c0.1,0,0.1,0,0.1,0
		c-1.4,0.6-2.4,1.4-2.6,3.1C288.1,370.3,287,371.3,286.4,372.6L286.4,372.6z M285.9,365c-0.6-0.3-0.9-1-1.6-0.5
		c-0.1,0.1-0.2,0.2-0.3,0.3C284.5,365,285.1,365.2,285.9,365z"/>
	<path class="st6" d="M290.9,365.9c0,0-0.1,0-0.1,0c0.4-0.1,0.7-0.3,1.1,0c0.9,0.5,1.6,1.4,2.6-0.1c0.5-0.7,1.6,0.4,2.3,1
		c0.8,0.6,0.1,1.1-0.3,1.6c-0.5,0.6-1,1.3-1.9,0.4c-0.7-0.6-1.4-0.8-1.9,0.2c-0.1,0.2-0.1,0.5-0.5,0.5c-1.9-0.2-1.4,1.5-1.8,2.4
		c-0.3,0.8,0.2,1.7,1.1,2.1c0.5,0.2,0.9,0.3,1.4,0.1c3-1,5.7-2.7,8.6-4.1c0.6-0.3,0.8-1,1.4-1.3c0.4-0.2,0.2-0.6-0.2-0.9
		c-1.2-0.9-2.5-1.7-3.9-2.3c-1.8-0.8-3-2.4-4.5-3.5c-0.5-0.3-0.6-1.3-0.5-2c0.1-0.7,0.4-0.8,1-0.6c0.7,0.3,1.3,0.7,2,1
		c0.6,0.3,0.6,0.3,0.7,1.3c0,0.2,0.3,0.3,0.5,0.5c1.4,0.8,2.8,1.7,4.1,2.6c2.7,1.8,2.8,5,0.3,7c-2.8,2.2-5.9,3.8-9.2,5
		c-1.3,0.5-2.5,0.3-3.5-0.8c-0.7-0.9-0.4-1.9-0.4-2.8c-0.1-0.9,0.3-1.9,0.7-2.8c0.3-0.7,0.9-1.3,0.1-2.2
		C289.5,367.1,291.1,366.7,290.9,365.9z"/>
	<path class="st5" d="M325.3,305.4c0.5-1,0.7-2,1.9-2.5c-0.1,1.6,0.2,3.2-0.2,4.7c-0.2,1.1-0.8,1.3-1.8,1.3c-3.7,0-7.4,0-11.2,0
		c-0.8,0-1.3,0.1-1.6,0.9c-0.7,1.9-2.9,2.9-4.7,2.2c-1.3-0.6-1.8-2.3-1-4.3c0.4-1,0.6-2.3,2.2-2.7c-0.2,0.9-0.6,1.6-0.8,2.4
		c-0.2,0.8,0.1,1.3,0.6,1.6c0.8,0.4,1.7,0.1,2.4-0.3c0.6-0.3,0.4-1.1,0.1-1.4c-1.1-1.4-0.5-2.6,0.3-3.8c0.7,0.2,0.8,0.9,1.2,1.5
		c0.2,0.3,0.3,0.7,0.7,0.6c0.4-0.1,0.5-0.4,0.6-0.8c0.1-0.7,0.4-1.3,1.3-1.8c0,1,0,1.8,0,2.6c0.1,0,0.2,0,0.3,0
		c0.2-0.6,0.4-1.2,0.7-1.8c0.1-0.3,0.3-0.5,0.7-0.4c0.3,0.1,0.3,0.4,0.2,0.7c-0.3,1.4,0.5,1.4,1.6,1.6c1.9,0.3,2.7-0.8,3.4-2.1
		c0.2-0.3,0.2-0.9,0.7-0.7c0.4,0.2,0.4,0.6,0.3,1c-0.2,0.5-0.7,1.4,0,1.6c1.1,0.4,0.5-0.8,0.9-1.3c0.3-0.4,0.4-0.9,1-1.2
		C325.3,304,325.3,304.6,325.3,305.4z"/>
	<path class="st4" d="M312,146.6c0.5-0.4,1-0.6,1.5-0.7c3.6-0.7,6.9-2.1,9.7-4.5c1.7-1.4,2.3-3.5,2.4-5.6c0.2-3.2-0.5-6.4-1.5-9.4
		c0,2.1,0,4.2,0,6.4c-0.8-0.4-0.9-1.2-0.9-1.8c0-3.3-0.6-6.5-0.3-9.8c0-0.4-0.1-0.8,0.5-0.9c0.5,0,0.7,0.2,0.9,0.6
		c2.5,4.7,3.9,9.6,3.4,14.9c-0.3,3.3-1.5,6.4-3.8,8.9c-1.5,1.6-3.6,2.2-5.7,2.4C316.2,147.3,314.1,147.3,312,146.6z"/>
	<path class="st5" d="M235.6,397.8c0.3-0.2,0.4-0.6,0.8-0.5c0.4,0.2,0.3,0.6,0.2,0.9c-0.3,1,0.3,1.1,1,1.2c0.8,0.1,1.1-0.2,1-1
		c-0.1-0.5,0.5-1,0.1-1.7c-0.4-0.8,0.3-1.5,0.9-2c0.2-0.2,0.7-0.2,0.8,0c0.1,0.9,1.3,2,0.6,2.5c-1.4,1-1.2,2.4-1.6,3.6
		c-0.5,1.4-1.2,1.7-2.5,1.3c-2.9-0.9-5.8-1.9-8.5-3.2c-0.9-0.4-1.9-0.7-2.8-1.2c-0.4-0.2-0.6,0-0.9,0.2c-1.6,1.5-3,0.9-4.3-0.5
		c-0.2-0.2-0.4-0.4-0.2-0.6c0.2-0.2,0.4-0.2,0.7-0.1c0.4,0.1,0.8,0.2,1.1,0.4c0.5,0.5,0.9-0.1,1.2-0.2c0.6-0.3-0.1-0.5-0.2-0.8
		c-0.4-1.3,1.6-3.9,3-3.9c1,0,1.2,0.5,1.1,1.3c0,0.3-0.4,0.6-0.3,1c0.1,0.3-0.1,0.6,0.2,0.8c0.3,0.2,0.5-0.2,0.7-0.3
		c0.6-0.5,1-1.2,2-1.1c1.2,0.1,1.8,0.8,1.7,2.1c-0.1,0.5-0.8,1-0.1,1.4c0.6,0.3,0.7-0.7,1.2-0.8c0,0,0.1-0.1,0.1-0.1
		c0.3-0.2,0.5-0.6,0.8-0.2c0.2,0.3,0,0.6-0.1,0.8c-0.1,0.3-0.7,0.4-0.3,0.8c0.4,0.3,0.7,0,1-0.3c0.1-0.1,0.3-0.3,0.4-0.4
		c0.2-0.2,0.4-0.6,0.7-0.4c0.4,0.2,0.2,0.6,0.2,0.9c-0.3,0.1-0.3,0.3-0.2,0.5C235.4,398.1,235.5,397.9,235.6,397.8z"/>
	<path class="st6" d="M272.8,134.8c-0.1-3.5,1.8-6,3.5-8.5c0.8-1.2,1.6-2.3,2.3-3.6c0.7-1.3,0.8-2.7,0.6-4.1c0-0.3-0.4-0.6,0-0.7
		c0.4-0.1,0.6,0.2,0.7,0.6c0.5,1.5,0.4,3-0.1,4.4c-0.7,1.7-1.6,3.3-2.8,4.7c-1.5,1.7-2.3,3.7-2.7,5.9c-0.3,1.9,1.7,3.4,3.6,2.7
		c1.6-0.6,2.6-1.8,3.2-3.3c0.3-0.7-0.8-1.9-2-2c-0.6-0.1-1.3,0-0.9-0.9c0.3-0.7,0-2.1,1.6-1.7c2,0.5,2.9,2.1,2.4,4.8
		c-0.3,1.6-0.6,3.2-2,4.4c-1.6,1.4-3.7,1.8-5.7,0.8C272.9,137.6,272.8,136.1,272.8,134.8z"/>
	<path class="st5" d="M332.2,309c-1.2-0.1-2.7,0.3-3.5-0.3c-0.7-0.6-0.2-2.1-0.2-3.3c0-1.2-0.9-2.4,0.3-3.4
		c-0.7-0.3-0.4-1.1-0.7-1.6c-0.4-0.9,0.5-2.2,1.4-2c0.3,0,0.5,0,0.5,0.4c0,1.9,0.7,0.6,1.2,0.3c0.3-0.2,0.4-0.7,0.9-0.3
		c0.6,0.6,1,0.6,1.7-0.1c0.7-0.7,1,0.3,1.4,0.6c0.4,0.3,1,0.7,0.3,1.3c-0.6,0.5-0.4,0.7,0.1,1.1c1.4,1.3,1,5.8,0.2,7
		c-0.2,0.4-0.6,0.3-0.9,0.3C334.1,308.9,333.1,308.9,332.2,309C332.2,308.9,332.2,308.9,332.2,309z M334.8,301.7
		c-0.7-0.1-1.3-1.2-1.9-0.7c-0.8,0.7-1.3,0.4-1.8-0.1c-0.6-0.6-0.9-0.5-1,0.3c-0.2,1.5,0,3.1,0.6,4.3c0.4,0.8,2.2,0.1,3.4,0.3
		c0,0,0.1,0,0.1,0c0.7,0,0.8-0.3,0.4-0.8C333.6,303.8,334.2,302.8,334.8,301.7z"/>
	<path class="st5" d="M254.5,405c-0.9-0.1-1.8,0-2.5-1c-0.2-0.3-0.6,0.6-1,0.3c-0.7-0.5-2-0.1-2.1-1.1c-0.1-1.1,0.3-2.2,1.3-3
		c0.6-0.4,1.3-0.6,1.6-1.5c0.2-0.6,0-0.8-0.3-1.1c-0.3-0.3-0.5-0.7-1.1-0.3c-0.8,0.7-1-0.3-1.4-0.6c-0.6-0.4-0.2-0.8,0.2-1.1
		c0.4-0.3,0.6-1.1,1.3-0.4c0.1,0.1,0.2,0.2,0.2,0.2c2.8-0.5,2.2,1.4,2.2,3c0,0.9,0.4,1.7,0.3,2.6c0,0.4-0.2,1.1,0.6,1
		c0.6,0,1.3,0.2,1.3-0.9c0-0.4,0.4-0.9,0.6-1.3c0.1-0.2,0.4-0.5,0.7-0.4c0.4,0.1,0.2,0.5,0.2,0.8c0.2,2.3,0.4,2.5,3.2,1.9
		c-0.7-0.9-1-1.8-0.3-2.8c0.4-0.6,0.8-0.6,1.2,0c0.5,0.8,0.5,4.4-0.1,5.2c-0.3,0.4-0.7,0.4-1.1,0.4c-1,0-2,0-3,0.1
		C256.1,404.8,255.3,404.5,254.5,405z"/>
	<path class="st4" d="M261.9,404.8c1.2,0.6,2,0.3,2.8-0.5c0.6-0.6,1.2-1.2,0.3-2.1c-0.3-0.3-0.5-0.8-0.4-1.2
		c0.1-0.5,0.2-1.2,0.8-1.3c0.4-0.1,0.7,0.5,0.9,0.8c0.2,0.2,0.3,0.6,0.6,0.8c0.2,0.2,0.5,0.2,0.8,0c0.2-0.1,0.3-0.2,0.3-0.5
		c-0.1-1.7,0.3-2.4,1.5-2.5c1.5-0.1,2,0.4,2.2,2.3c1.8-0.4,1.8-0.4,1-2c-0.2-0.3-0.5-0.6-0.6-1c-0.5-0.9,0.1-1.6,0.3-2.4
		c0.1-0.2,0.4-0.2,0.5,0c0.5,0.8,2,1,1.7,2c-0.5,1.4,0.1,2.6,0.3,3.8c0.2,1.2,0,2.1-1.4,2.3c-1.8,0.2-3.6,0.5-5.4,0.6
		c-0.9,0.1-1.4,0.1-1.6,1.2c-0.2,0.8-0.7,1.8-1.8,1.7C263.5,406.7,262.4,406.3,261.9,404.8z"/>
	<path class="st7" d="M268.7,370.8c-0.4-0.1-0.3-0.4-0.3-0.7c-0.1-4.8-1.3-9.5-1.9-14.3c-0.3-1.9-0.5-3.9-0.6-5.8
		c0-0.6,0-1.2-0.4-1.7c-0.8-1,0.1-1.8,0.4-2.6c0.1-0.3,0.6-0.3,0.8,0.1c1,1.6,1.7,3.4,2.3,5.2c0.1,0.3,0,0.7-0.4,0.7
		c-1.5-0.3-0.6,0.7-0.6,1.2c0.1,3.6,1.1,7.1,1.4,10.7c0.2,2,0.4,4-0.1,6C269.3,370,269.2,370.5,268.7,370.8z"/>
	<path class="st5" d="M279.3,351.2c0.4,2.4,0.7,4.7,1,7c0.3,2,0.7,3.9,0.8,5.9c0.1,2.3,0.8,4.5-0.3,6.8c-0.1,0.3-0.2,0.7-0.6,0.7
		c-0.2-5.3-1.3-10.4-2-15.6c-0.3-2.2-0.7-4.4-1-6.6c-0.2-1-0.9-2,0-3.1c0.6-0.8,1-0.8,1.4-0.1c1,1.5,1.3,3.2,1.8,4.9
		c0.1,0.2,0.1,0.5-0.2,0.6C279.9,351.8,279.8,351.2,279.3,351.2z"/>
	<path class="st4" d="M216.7,389.8c-0.4-1.8,0.8-2.3,2-2.8c0.3,2-1.1,4.6-2.9,5.3c-0.3,0.1-0.6,0.2-0.8-0.1c-0.9-1-2.5-1.2-2.9-2.9
		c-0.1-0.5-1.3-1-2-1.6c-0.6-0.6-0.6-1.1,0.1-1.5c0.9-0.6,1.8-1.4,3.1-1.2c0.9,0.2,1.7-0.3,2-0.9c0.3-0.8-0.3-1.2-1.2-1.4
		c-0.4-0.1-0.6-0.9-0.6-1.5c0-0.5,0.6-0.5,0.9-0.6c0.5-0.2,1-0.1,1.2,0.5c0.3,0.9,1.9,0.6,1.6,2c0,0.2,0.1,0.5,0.1,0.5
		c-1.5,0.6-1.2,2.4-2.2,3.3c-1.1,1-0.3,1.7,0.6,2.2C215.8,389.5,216.2,389.6,216.7,389.8z"/>
	<path class="st5" d="M191.7,308.2c-0.7,0-1.5,0-2.2,0c-2.1,0-2.5-0.5-2.1-2.6c0.1-0.4,0.2-0.5,0.5-0.5c0.2,0,0.5,0,0.7,0
		c2.6,0,3.5-0.8,3.8-3.4c0.1-0.5,0.1-1,0.5-1.1c0.4-0.2,0.8,0.2,1.1,0.5c1.4,1.4,2.8,2.7,2.6,5c-0.2,1.6-0.6,2.2-2.2,2.2
		C193.6,308.2,192.7,308.2,191.7,308.2z"/>
	<path class="st5" d="M323,147.2c0.8-0.9,1.6-0.7,2.2-0.9c3.5-1.3,5.9-3.6,6.6-7.4c0.1-0.6,0.3-0.7-0.5-0.6c-0.9,0-1.9-0.1-1.9-1.5
		c0-1.4,0.8-2.8,1.9-3c0.6-0.1,1.1,0,1.4,0.8c1.3,3.2,1.1,8.6-1.9,10.9c-1.2,0.9-2.5,1.4-3.9,1.7C325.7,147.3,324.5,147.2,323,147.2
		z"/>
	<path class="st7" d="M240.2,355.1c-0.1-0.6,0.1-1,0.6-1.2c4.7-2.6,9.2-5.4,14.2-7.3c0.4-0.2,0.8-0.5,1.2-0.6c0.4-0.1,0.9-0.8,1.2,0
		c0.3,0.6,0,1.2-0.6,1.5c-0.9,0.4-1.8,0.7-2.7,1.1c-4.5,2-8.8,4.4-13.1,7c-0.2,0.1-0.3,0.4-0.6,0.3
		C240.1,355.6,240.3,355.3,240.2,355.1z"/>
	<path class="st7" d="M215.1,302.3c0.6-0.9,0.8-1.9,1.5-2.5c0.6-0.6,0.8-0.3,1,0.3c0.5,1.3,0,2.4-0.7,3.5c-0.7,1.2-0.9,2.5-1.3,3.7
		c-0.1,0.3-0.2,0.5-0.5,0.5c-0.3,0-0.4-0.3-0.4-0.5c-0.7-1.8-1.1-3.7-2.3-5.3c0,0,0-0.1,0-0.1c0.1-0.7-0.4-1.8,0.5-2.1
		c0.8-0.2,1.1,0.7,1.4,1.4C214.6,301.5,214.5,302,215.1,302.3z"/>
	<path class="st6" d="M257.4,353.6c0.3,0.9-0.1,1.6-0.8,1.9c-4.6,2-9,4.1-13.1,7c-0.1,0.1-0.4,0.1-0.6,0.2c-0.5-1.5,0.8-1.9,1.6-2.4
		c3.6-2.5,7.8-3.9,11.6-6.1C256.6,354,257,353.8,257.4,353.6z"/>
	<path class="st5" d="M222.9,301.7c1.8,1,1.8,1.1,0.8,2.6c-0.6,0.8-0.2,1.3,0.4,1.8c0.3,0.3,1.2,0.3,0.8,1c-0.4,0.6-0.8,1.3-1.7,1.2
		c-1-0.2-1.6-0.9-2.2-1.8c-0.5-0.9,0.1-1.3,0.6-1.7c0.5-0.5,0.5-0.9-0.1-1.3c-0.6-0.5-0.7-1.3-0.3-1.7c0.6-0.8,1.2-1.8,2.3-1.9
		c0.7-0.1,0.4,0.8,0.3,1.1C223.7,301.2,223.2,301.4,222.9,301.7z"/>
	<path class="st4" d="M218.1,367c-0.6-2.5-1.3-4.6-2.3-6.5c-0.6-1.1,0-2.4,0.4-3.4c0.3-0.9,0-1.2-0.5-1.6c-0.1-0.1-0.3-0.1-0.4-0.2
		c-0.7-0.5-1-1.4-0.5-1.9c0.6-0.7,1.1,0.3,1.5,0.6c0.2,0.1,0.3,0.4,0.6,0.7c0-0.8,0-1.4,0.4-2c0.3-0.4,0.6-0.6,1-0.3
		c0.4,0.2,0.9,0.5,0.8,1.1c0,0.3-0.3,0.5-0.5,0.6c-0.3,0.2-0.9-1.2-0.9,0c0,0.9-1.1,1.9,0.2,2.7c0.7,0.5,0.5,1.7-0.3,2
		c-1.1,0.4-1,1-0.6,1.8c0.7,1.4,1.1,3,1.5,4.5C218.5,365.7,218.6,366.2,218.1,367z"/>
	<path class="st7" d="M272.5,347c0.1,0.8,0.1,1.5,1.1,2c0.8,0.4,0.5,1.5-0.6,1.8c-1.6,0.4-1.3,1.1-0.7,2.2c0.7,1.3,1.4,2.5,1.8,4
		c0.2,0.7-0.1,1-0.3,1.8c-1-2.2-1.9-4-2.7-5.9c-0.5-1.3,0-2.7,0.3-3.9c0.3-0.9,0-1.4-0.6-1.7c-1.3-0.4-1.3-1.2-0.9-2.2
		c1,0.2,1.4,1,2,1.6C272,346.8,272.2,346.9,272.5,347z"/>
	<path class="st5" d="M207.9,308.2c-1-2.1-1.5-4.4-2.8-6.2c-0.4-0.5,0.3-1.3,0.8-1.8c0.5-0.5,0.8,0.2,1.1,0.5
		c0.1,0.1,0.1,0.1,0.2,0.2c1,0.6,0.6-0.8,1.3-0.9c0.5-0.1,0.3,1.6,1.1,0.4c0.2-0.3,0.4-0.4,0.5-0.2c0.3,0.6,0.2,1.4,0.1,2
		c0,0.3-0.1,1-0.7,1c-1.6-0.1-1.2,0.9-0.9,1.7C208.9,306,208.2,307,207.9,308.2z"/>
	<path class="st7" d="M234.2,116.6c0,2.8-2.8,6.2-5.3,6.9c-0.4,0.1-0.9,0.2-1.1-0.1c-0.2-0.5,0.1-0.8,0.5-1c1-0.7,2.1-1.3,2.8-2.3
		c0.5-0.7,1.6-1.3,0.5-2.4c-0.2-0.2-0.1-0.7,0-1c0.2-0.8,0.3-1.7,1.3-1.6C234.1,115,234,116,234.2,116.6z"/>
	<path class="st8" d="M294.5,348.4c0.1,1.1-0.5,1.6-1.2,2c-3.1,1.6-6.3,3.1-9.3,4.9c-0.6,0.4-1.1,0.9-1.8,1.4c-0.4-1,0-1.7,0.6-2.2
		C286.6,352.3,290.6,350.5,294.5,348.4z"/>
	<path class="st5" d="M222.2,388.7c1.2,1.7,0.3,5.5-1.5,6.2c-0.4,0.1-3.1-1-3.1-1.3c0-0.9,0.6-1.6,1.2-2.2c0.5-0.5,1,0.2,1.4,0.4
		c0.2,0.1,0.5,0.5,0.7,0.2c0.1-0.1,0.2-0.5,0.1-0.7C220.2,389.9,221.5,389.5,222.2,388.7z"/>
	<path class="st6" d="M227.2,364.5c-0.7-1.5-1.2-2.6-2.3-3.2c-1.2-0.7-0.2-1.5-0.1-2.4c1.2,0.5,1.5,1.7,2.4,2.4
		c0.2-0.7,0.4-1.2,0.5-1.7c0.1-0.7,0.6-0.9,1.2-0.7c0.6,0.2,0.9,0.5,0.9,1.2c-0.1,0.7-0.4,0.8-1,0.6c-0.5-0.1-0.6,0.2-0.7,0.7
		C227.9,362.3,227.6,363.2,227.2,364.5z"/>
	<path class="st7" d="M252.8,362.1c-0.2-0.7,0.3-1.2,0.3-1.8c0-0.6,0.2-1,0.9-1.1c0.8,0,0.8,0.6,1,1.1c0.1,0.4,0,0.9,0,1.5
		c-1.3-1.1-1.6-0.6-1.6,0.7c0,0.6-0.3,1.2-0.4,1.8c-0.4,0.1-0.7-0.2-0.8-0.5c-0.3-0.9-0.9-1.4-1.8-1.6c-0.3-0.1-0.7-0.2-0.8-0.6
		c-0.1-0.5-0.3-1.2,0.1-1.6c0.5-0.4,0.8,0.2,1.3,0.3C251.8,360.7,251.8,361.7,252.8,362.1z"/>
	<path class="st5" d="M200,299.4c1.3,3,2.5,5.7,1.3,8.9c-1-0.5-0.8-1.6-1.1-2.4c-0.3-0.8-0.4-1.8-0.7-2.6
		C198.9,301.5,198.8,301.5,200,299.4z"/>
	<path class="st6" d="M186.6,123.6c-0.3-0.1-1,0.8-1.2,0.1c-0.2-0.7-0.4-1.6,0.3-2.2c0.8-0.7,1.7-1.1,2.6-0.5
		c0.7,0.5,0.4,2.6-0.3,3.3c0,0-0.1,0.1-0.1,0.1c-0.7,0.3-1.5,1.3-2,0.7C185.1,124.3,187,124.5,186.6,123.6z"/>
	<path class="st8" d="M286.1,300.4c-0.3,0-0.7,0-0.9,0.3c-0.9,0-1.6-1.3-2.7-0.1c-0.2,0.3-1.3-0.4-1.6-1c-0.3-0.7,0.3-1.2,0.8-1.6
		c0.5-0.5,1-0.2,1.4,0.2c0.3,0.4,0.5,0.4,0.7-0.1c0.3-0.5,0.9-0.6,1.2-0.1c0.3,0.5,1.8,0.4,0.9,1.5
		C285.6,300,286.1,300.1,286.1,300.4z"/>
	<path class="st7" d="M277.2,402.4c-0.6-1.7-1.2-3.4-1.7-5.1c-0.3-0.9,0.3-1.7,0.3-2.6c0-0.4,0.4-0.4,0.6,0c0.8,2.2,1.8,4.3,1.7,6.7
		c0,0.2-0.2,0.4-0.3,0.7C277.6,402.2,277.6,402.4,277.2,402.4z"/>
	<path class="st8" d="M241.2,403.8c-0.2-2.4,0.5-4.2,0.7-6.2c0.1-0.9,1.1-1.3,1.8-1.8C243.3,398.5,243.8,401.4,241.2,403.8z"/>
	<path class="st6" d="M200.4,148.8c1.7-2.3,4.3-3.3,6.6-4.6c0.2-0.1,0.6-0.1,0.6,0.2c0,0.4,0.3,1-0.2,1.3
		C205.2,146.8,203,148.2,200.4,148.8z"/>
	<path class="st8" d="M305.9,147.8c0.1-1.1,0.8-1.8,1.5-2.3c1.8-1.2,3.6-2.3,5.4-3.4c0.3-0.1,0.7-0.7,1-0.1c0.2,0.3,0.2,0.8-0.2,1
		C311,144.5,308.6,146.4,305.9,147.8z"/>
	<path class="st7" d="M256.6,108c0-1.1,1.6-1.4,1.3-2.7c-0.1-0.2,0.2-0.3,0.4-0.3c0.3,0,0.5,0.1,0.5,0.4c0,1,0.3,2.1-0.1,2.9
		c-0.3,0.7-1.3,1.2-2.2,1.5c-0.6,0.1-1-0.3-1.1-0.8c-0.2-0.8-0.3-1.7,0.6-2.4C256.6,106.9,256.1,107.6,256.6,108z"/>
	<path class="st8" d="M241.9,347.3c0.7-0.3,0.5-1.1,0.9-1.5c0.3-0.3,0.6-0.7,1.1-0.5c0.6,0.3,0.5,0.9,0.5,1.4c0,0.8-0.3,0.6-0.8,0.3
		c-0.3-0.2-0.3,0.2-0.5,0.4c-0.3,0.3-0.1,0.9-0.3,1.1c-0.4,0.5,0,1.4-0.6,1.5c-0.8,0.2-0.6-0.8-0.9-1.3c-0.2-0.3-0.3-0.5-0.7-0.6
		c-0.6-0.1-1-0.5-1-1.1c0-0.4-0.2-0.9,0.2-1.1c0.4-0.2,0.7,0.1,1,0.4C241.2,346.7,241.6,347,241.9,347.3z"/>
	<path class="st7" d="M234.9,351.3c0,0.2,0,0.5,0,0.7c0,0.6-0.1,1.4-0.7,1.4c-0.6,0-0.3-0.8-0.3-1.2c0-1.6-0.7-2.8-1.7-3.9
		c-0.2-0.3-0.6-0.4-0.6-0.8c0-0.4-0.1-0.8,0.3-1.1c0.4-0.4,0.7,0,1,0.3C233.8,347.7,235.1,349.4,234.9,351.3z"/>
	<path class="st7" d="M275.5,121.4c0.3-0.5,0.6-0.9,0.8-1.3c0.1-0.3,0.1-0.8,0.5-0.8c0.4,0,0.7,0.3,0.8,0.7c0.2,0.8,0.8,1.6,0.2,2.4
		c-0.6,0.8-1.7,0.7-2.5,0.9c-0.4,0.1-0.7-0.2-0.8-0.7c0-0.4-0.1-0.8,0-1.2c0.1-0.5-0.4-1.3,0.4-1.3C275.8,120,275.2,121,275.5,121.4
		z"/>
	<path class="st5" d="M239.3,136.9c0-1,2.6-3.1,3.5-2.8c0.7,0.2,0.2,1,0.6,1.5c0.3,0.4-0.1,0.8-0.5,1c-0.8,0.3-1.5,0.7-2.2,1.2
		C239.5,138.5,239.3,138.4,239.3,136.9z"/>
	<path class="st5" d="M307.1,387.5c-1-1.5-2.2-2.6-3.4-3.6c-0.9-0.7-0.9-1.7-1.2-2.6c-0.1-0.2-0.1-0.5,0.2-0.7
		c0.2-0.1,0.4,0,0.5,0.1c1.6,1.4,3,3.1,4,5C307.5,386.3,307.5,386.8,307.1,387.5z"/>
	<path class="st8" d="M257.9,202.5c-0.4,0-0.8,0-1.2,0c-3.4,0-3.4,0-3.4,3.5c0,6,0,12.1,0,18.1c0,0,0,0.1,0,0.1c0,0.1-0.1,0.1-0.2,0
		c0-6.8,0-13.5,0-20.3c0-0.5,0-1.1-0.1-1.6c1.4-1,3-0.3,4.5-0.6C257.8,201.7,257.8,202.2,257.9,202.5z"/>
	<path class="st7" d="M208,129.3c0-1.5,1.7-2.6,3.1-2.2c0.4,0.1,0.4,0.4,0.4,0.7c-0.1,0.6,0.3,1.3-0.4,1.8c-0.5,0.3-1,0.5-1.4,0.8
		C208.2,131,208,130.9,208,129.3z"/>
	<path class="st4" d="M316.1,127.5c-0.3-1.6-0.3-3.1,1.5-3.6c0.5-0.2,1.1-1,1.6-0.4c0.8,0.9,0.4,2.2-0.6,2.7
		C317.8,126.6,317,127,316.1,127.5z"/>
	<path class="st4" d="M295.8,353.8c0.5-0.9,0-2.3,1.3-2.4c0.9,0,1.2,0.8,0.9,1.9c-1-0.8-1.5-0.7-1.4,0.7c0,0.3-0.2,0.6-0.3,1
		c-0.1,0.4-0.2,0.9-0.6,0.9c-0.5,0.1-0.5-0.5-0.7-0.8c-0.2-0.4-0.4-0.7-0.9-0.9c-0.4-0.2-0.9-0.5-0.8-1.1c0-0.4-0.2-1,0.1-1.3
		c0.5-0.3,0.7,0.3,1,0.6C294.9,352.8,295.3,353.2,295.8,353.8z"/>
	<path class="st6" d="M245,357.3c-0.3,0.7-0.8,1.3-1.6,1.6c-0.3,0.1-2.4-1.5-2.2-1.6c0.5-0.7,0.6-1.8,1.6-2.1
		C243.3,355.1,245,356.7,245,357.3z"/>
	<path class="st7" d="M271.6,365.1c0.5,0,2.3,1.6,2.2,1.8c-0.4,0.8-0.6,1.7-1.5,2c-0.4,0.1-2.2-1.8-2-2.1
		C270.7,366.1,270.8,365.2,271.6,365.1z"/>
	<path class="st7" d="M284.4,356.7c1.6,0.5,2.2,1.5,1.9,2.9c-0.2,1-0.7,1.4-1.7,1.3c-1-0.1-0.7-0.9-0.6-1.4
		C284.1,358.6,284.3,357.7,284.4,356.7z"/>
	<path class="st6" d="M224,373.2c0.1,0.9-0.3,1.3-1.1,1.7c-1.8,0.9-3.6,1.9-5.4,2.8c-0.3-0.8,0-1.4,0.7-1.7
		C220.2,375,222.2,374.1,224,373.2C224.1,373.2,224,373.2,224,373.2z"/>
	<path class="st5" d="M280.1,113.5c-0.4,3.4-3.5,3.7-5.1,5.8c-0.4-1.4,0.1-1.9,0.9-2.5C277.2,115.8,278.5,114.7,280.1,113.5z"/>
	<path class="st5" d="M285,350.4c0,0.5,0,0.8,0,1.1c0,0.5-0.1,1-0.6,1c-0.7,0-0.4-0.7-0.4-1c0.1-1.5-0.6-2.7-1.7-3.6
		c-0.5-0.4-0.9-1-0.5-1.5c0.6-0.6,1,0.1,1.4,0.5C284.5,347.9,285.2,349.1,285,350.4z"/>
	<path class="st4" d="M256.9,405.3c0.3,0.7,1.7,1.1,0.7,2.2c-0.1,0.1-0.4,0.4-0.4,0.4c-1-0.8-2.4,0.2-3.3-0.7
		c-1-0.9,0.4-1.3,0.6-1.9C255.3,405.8,256.1,406.1,256.9,405.3z"/>
	<path class="st6" d="M276,133.1c0.4-0.4,0-1.7,1-1.4c0.6,0.2,2.1-0.5,1.9,0.9c-0.1,0.5,0.3,2-1,1.8
		C277.3,134.3,275.9,134.7,276,133.1z"/>
	<path class="st5" d="M257.9,360c0.4,1.5-1.2,2.8-0.5,4.3c0.7,0.4,0.6-1,1.2-0.5c0.4,0.3,0.3,0.8,0.1,1.2c-0.2,0.5-0.4,1.1-1.2,1.1
		c-0.7,0-0.8-0.5-1-1C255.9,363,256.9,361.5,257.9,360z"/>
	<path class="st8" d="M286.4,372.6c0.9,0.2,1.1,0.7,0.8,1.5c-0.2,0.5-0.3,0.9-0.2,1.4c0,0.3,0.2,0.6,0.6,0.3
		c0.3-0.4,0.7-0.7,0.9-0.1c0.3,0.7-0.1,1.3-0.7,1.6c-0.4,0.2-0.9,0.3-1.2-0.3c-0.5-1.1-0.3-2.2-0.2-3.3
		C286.5,373.4,286.9,373,286.4,372.6C286.4,372.6,286.4,372.6,286.4,372.6z"/>
	<path class="st7" d="M226.2,350.4c-0.3,0.9-0.3,1.8-0.2,2.7c0,0.5,0.3,0.9,0.8,0.3c0.1-0.1,0-0.6,0.4-0.3c0.2,0.1,0.4,0.4,0.3,0.6
		c-0.3,0.6,0,1.9-1.1,1.8c-1.2-0.1-1.4-1.4-1.3-2.3c0-0.9,0.5-1.9,0.8-2.8C225.9,350.4,226,350.4,226.2,350.4z"/>
	<path class="st7" d="M290.3,302c-0.3-0.7-1.6-0.6-1.4-1.5c0.1-0.7,0.7-1.7,1.4-1.6c0.6,0.1,1.7,0.6,1.6,1.4
		C291.9,301,291.1,301.6,290.3,302z"/>
	<path class="st5" d="M215.3,394.5c0,0.5,0,0.8-0.5,0.8c-0.4,0-0.8,0.7-1.2,0.1c-0.3-0.6-0.6-1-1.4-1.1c-0.5-0.1-0.7-0.7-0.7-1.2
		c0-0.7,0.9-0.5,1.3-0.8c0.6-0.4,0.6,0.4,0.7,0.6c0.2,0.4,0.4,0.6,0.9,0.6C215.1,393.5,215.1,394.2,215.3,394.5z"/>
	<path class="st8" d="M298.4,358.7c0.1-0.6-0.1-1.1,0.3-1.5c0.3-0.3-0.2-1.2,0.4-1c0.7,0.1,0.3,0.9,0.3,1.4c0,0.4-0.2,0.7-0.3,1.1
		c0,0.3,0.1,0.7,0.5,0.4c0.3-0.2,0.5-1.1,0.8-0.1c0.2,0.6,0.3,1.4-0.5,1.8c-0.6,0.3-1-0.1-1.1-0.6
		C298.7,359.7,298.1,359.2,298.4,358.7z"/>
	<path class="st8" d="M263.6,359.2c-0.2-0.5,0.2-0.9,0.4-1.4c0.1-0.4,0.2-1.1,0.8-0.9c0.6,0.2-0.2,0.6-0.1,1
		c0.2,0.4-0.4,1.2,0.7,1.2c0.5,0,0.3,0.7,0.3,1.1c0,0.4-0.3,0.6-0.6,0.7c-0.4,0.1-0.8-0.1-1-0.5C263.8,360,263.5,359.7,263.6,359.2z
		"/>
	<path class="st8" d="M250.7,353.4c0.2-0.7,0.4-1.4,0.6-2.1c0.1-0.2,0.2-0.6,0.6-0.5c0.4,0.1,0.3,0.5,0.2,0.8
		c-0.1,0.4-0.2,0.7-0.4,1.1c-0.3,0.4-0.1,0.8,0.3,0.8c0.6-0.1,0.9-0.1,0.8,0.6c-0.1,0.6-0.4,1.1-1,1.2c-0.5,0.1-0.7-0.5-0.8-0.9
		C250.8,354,250.8,353.7,250.7,353.4z"/>
	<path class="st5" d="M235.2,357.6c0.5,0.7,0,1.2-0.1,1.7c-0.4,1.6-0.4,1.6,1,2c0.4,0.1,0.3,0.5,0.3,0.7c0,0.6-0.1,1.1-0.6,1.4
		c-0.4,0.2-0.9,0.1-1.2-0.4c-0.7-1.1-0.5-2.3-0.3-3.4C234.4,358.9,234.5,358.1,235.2,357.6z"/>
	<path class="st5" d="M287.3,347.9c0-0.5-0.1-1.1,0.3-1.7c0.1-0.2,0.2-0.6,0.6-0.5c0.3,0.1,0.5,0.4,0.2,0.7
		c-0.3,0.4-0.1,0.8-0.4,1.2c-0.2,0.2,0.1,0.8,0.5,0.6c0.5-0.3,0.9-0.5,1,0.2c0.1,0.8-0.5,1.3-1.1,1.5c-0.4,0.1-1.1-0.1-1-0.9
		C287.3,348.7,287.3,348.4,287.3,347.9z"/>
	<path class="st8" d="M211.7,368.7c0.3,0.4,0,0.8,0,1.2c0,0.3,0,0.8,0.6,0.8c0.3,0,0.7-0.6,0.8,0.2c0.1,0.6-0.1,1.1-0.6,1.4
		c-0.3,0.2-0.9,0.2-1.2-0.3C210.7,371.3,210.9,369.6,211.7,368.7z"/>
	<path class="st8" d="M221,366.9l-0.1,0c-1.4-0.8-2-2.2-1.3-3.5c0.1-0.2,0.1-0.8,0.6-0.6c0.4,0.2,0,0.5,0,0.7
		c0.1,0.5-0.8,1.8,0.9,1.2c0.4-0.1,0.4,0.4,0.3,0.7C221.3,366,221.2,366.4,221,366.9z"/>
	<path class="st5" d="M257.5,373.5c-0.1-0.9,0.1-1.6,0.5-2.4c0.1-0.2,0.1-0.7,0.5-0.6c0.5,0.2,0.3,0.5,0.1,0.9
		c-0.1,0.2-0.2,0.4-0.3,0.6c-0.4,1-0.3,1.2,0.8,1.5c0.3,0.1,0.3,0.3,0.3,0.6c0.1,0.6-0.2,1-0.7,1.4c-0.3,0.2-0.5,0.1-0.8-0.1
		C257.3,374.8,257.6,374.1,257.5,373.5z"/>
	<path class="st5" d="M227.8,145.3c-0.1,1-0.1,2-0.9,1.8c-0.6-0.1-1.8,0.3-1.7-1.1c0.1-0.9,0.5-1.4,1.5-1.3
		C227.5,144.7,227.9,144.8,227.8,145.3z"/>
	<path class="st7" d="M292.9,355.1c0.1,1-0.2,1.5-0.4,2c-0.1,0.5-0.2,0.5,0.5,0.7c0.5,0.1,0.2,0.4,0.2,0.7c0.1,0.5,0,1-0.7,1.1
		c-0.5,0.1-0.9-0.2-0.9-0.8C291.7,357.6,291.9,356.5,292.9,355.1z"/>
	<path class="st8" d="M262.2,348c0-0.6-0.1-1,0.1-1.2c0.4-0.3,0-1.3,0.6-1.1c0.7,0.2,0.1,0.8,0,1.2c0,0.3-0.4,1,0.5,0.8
		c0.3-0.1,0.6-0.4,0.8,0.2c0.1,0.6-0.2,0.9-0.6,1.3c-0.3,0.3-0.6,0.3-0.9,0C262.3,348.7,262.2,348.3,262.2,348z"/>
	<path class="st7" d="M259.8,408.5c-0.4-0.5-1.3-0.4-1.3-1.2c0-0.7,0.6-1.2,1.2-1.3c0.7-0.2,1.3,0.6,1.4,1.1
		C261.1,407.7,260.3,408,259.8,408.5z"/>
	<path class="st8" d="M272.5,347c-0.2-0.1-0.4-0.2-0.6-0.2c0.6-0.2,0.3-0.8,0.3-1.1c0.1-0.7,0.4-1,1-1c0.6,0,1,0.3,1,0.8
		c0.1,0.7-0.2,1-1,0.8C272.8,346.1,272.7,346.7,272.5,347z"/>
	<path class="st4" d="M248.2,345.5c0.5,0.3,0.4,0.7,0.3,1c-0.2,0.5-0.7,0.9,0.4,0.8c0.5-0.1,0.3,0.7,0.2,1c-0.1,0.3-0.1,0.8-0.7,0.8
		c-0.5,0-0.8-0.2-0.8-0.7C247.5,347.4,247.7,346.5,248.2,345.5z"/>
</g>
</svg>
