<?xml version="1.0" encoding="utf-8"?>
<!-- Generator: Adobe Illustrator 23.0.6, SVG Export Plug-In . SVG Version: 6.00 Build 0)  -->
<svg version="1.1" id="Layer_1" xmlns="http://www.w3.org/2000/svg" xmlns:xlink="http://www.w3.org/1999/xlink" x="0px" y="0px"
	 viewBox="82.6 224.5 407.9 470.0" style="enable-background:new 82.6 224.5 407.9 470.0;" xml:space="preserve">
<style type="text/css">
	.st0{fill-rule:evenodd;clip-rule:evenodd;fill:#B49A5D;}
	.st1{fill-rule:evenodd;clip-rule:evenodd;fill:#2E572A;}
	.st2{fill-rule:evenodd;clip-rule:evenodd;fill:#FFFFFF;}
</style>
<g>
	<path class="st0" d="M286.13,234.5c0.75,0,1.5,0,2.25,0c82.94,32.57,147.5,87.49,139.5,208.5c-3.75,0-7.5,0-11.25,0
		c6.57-113.72-50.07-170.32-129-201c-79.69,30.08-136.8,86.67-129.75,201c-4,0-8,0-12,0C138.88,322.64,202.42,266.63,286.13,234.5z"
		/>
	<path class="st1" d="M292.13,318.5c6.51-3.99,12.41-8.59,23.25-8.25c-1.78,1.8-2.98,5.33-6,3.75c0,1,0,2,0,3
		c-4.46,0.29-9.17,0.33-11.25,3c8.24-1.07,19.8-0.86,24,6c-6.09,1.42-10.65-0.85-14.25-3.75c1.04,6.11,12.8,8.68,6,15.75
		c-3.43-5.57-7.82-10.18-14.25-12.75c3.58,4.17,9.6,5.9,10.5,12.75c-3.55-0.2-4.22-3.28-6.75-4.5c0.39,3.86,2.48,6.02,3,9.75
		c-4.45-0.05-4.92-4.08-6.75-6.75c-1.82,2.1,1.72,8.41-0.75,11.25c-3.19-3.89-3.8-10.69-7.5-15.75c0.62,3.88,4.71,11.65,1.5,18
		c-0.96-1.04-3.54-0.46-4.5-1.5c-0.08,15.1,3.02,18.61,2.25,34.5c3.01,1.74,9.24,0.26,13.5,0.75c-1.32,4.43-5.07,6.43-7.5,9.75
		c-1.39-3.71-1.53-0.42-4.5,0c0-1.25,0-2.5,0-3.75c-2.98,0.52-2.25,4.75-6.75,3.75c-0.62-2.12,1.06-1.94,0.75-3.75
		c-1.32-1.51-2.97,2.98-4.5,3.75c-0.45-0.43-3.56-1.76-3.75,0c-2.33-1.43,1.17-3.26,0.75-5.25c-2.96-0.21-2.29,3.21-5.25,3
		c-0.28-3.92-6.77-4.94-5.25-8.25c4.75,0,9.5,0,14.25,0c-0.78-3.72-1.33-7.67-1.5-12c0.75,0,1.5,0,2.25,0
		c-1.93-4.04,2.28-5.99-1.5-9c1.84-3.57,2.01-7.08,2.25-13.5c-0.96-2.1-1.55,2.36-3.75,1.5c-0.8-8.3,1.56-13.44,3.75-18.75
		c-2.29-1.01-3.87,5.11-4.5,8.25c-1.49,1.25-0.95-0.07-3,0c0.64,4.89-1.88,6.63-4.5,8.25c-0.05-8.8,4.9-12.6,8.25-18
		c-4.54,0.71-4.05,6.45-9.75,6c0.53,5.53-4.02,5.98-7.5,7.5c1.96-7.29,7.9-10.6,12.75-15c-4.56,0.19-6.24,3.26-9,5.25
		c-4.79-3.48-5.97,1.51-10.5,2.25c1.39-4.87,5.16-7.34,9.75-9c-3.94-2.45-5.63,1.23-12,1.5c3.69-7.9,18.26-8.96,26.25-4.5
		c0.8-3.07-8.12-2.86-9.75-6c-5.09,3.47-8.97-0.88-15,0.75c1.4-4.1,6.65-4.35,12-4.5c-0.84-2.4-4.38-2.12-6.75-3
		c5.16-7.55,16.25,0.61,19.5,4.5c0.08-2.33-2.36-2.14-1.5-5.25c-2.92,0.17-5.19-0.31-4.5-3.75c-3.78,0.53-5.15-1.35-7.5-2.25
		c0.8-1.7,2.27-2.73,4.5-3c2.47,0.28,3.75,1.75,5.25,3c2.28-0.92-0.81-2.58,0-4.5c2.53-0.22,5.12-0.38,6.75-1.5
		c2.69,0.06,0.6,4.9,2.25,6c1.54-1.46,2.46-3.54,3.75-5.25c3.57,0.68,6.8,1.7,11.25,1.5c-3.57,4.18-7.61,7.89-9.75,13.5
		c5.39-4.36,7.63-11.87,18-11.25C305.07,309.95,297.28,312.9,292.13,318.5z M290.63,324.5c0.14,2.11,1.3,3.2,3.75,3
		C294.11,325.42,292.13,323.08,290.63,324.5z M289.88,339.5c-0.08-3.42-0.47-6.53-2.25-8.25
		C286.86,332.95,287.22,338.85,289.88,339.5z"/>
	<path class="st0" d="M286.88,406.25c15.27-13.14,37-32.73,66-22.5c-27.17-0.88-45.89,13.08-60.75,27c2.94,3.56,6.19,6.81,9.75,9.75
		c1.09-1.91,1.22-4.78,4.5-4.5c0.26,0.99,1.32,1.18,1.5,2.25c1.15,3.65-2.75,2.25-3.75,3.75c3.75,9.41,15.07-3.84,18.75,3.75
		c-0.83,11.14-19.01,8.03-23.25,2.25c-0.25,2.64-3.07,5.38-6,3c-0.4-3.4,1.1-4.9,4.5-4.5c-3.19-3.81-6.69-7.31-10.5-10.5
		c-4.67,2.33-8.08,5.92-11.25,9.75c1.91,1.09,4.78,1.22,4.5,4.5c-3.18,3.35-6.6,0.13-6-3c-3.59,6.8-22.37,9.07-23.25,0.75
		c-1.21-11.48,14.58,3.06,18.75-5.25c-0.82-2.44-5.41-1.09-4.5-5.25c0.6-0.65,2.05-0.45,2.25-1.5c2.44,0.07,4.25,3.03,3,4.5
		c4.55-2.2,7.2-6.3,10.5-9.75c-14.64-13.63-31.98-28.49-60-26.25C248.73,372.76,272.59,393.07,286.88,406.25z"/>
	<path class="st0" d="M211.13,452c0.96,4.53-4.64,6.13-7.5,8.25c-27.67,20.49-90.32,19.04-111-7.5c0.27-0.86,1.32-1.9,1.5-0.75
		C133.13,452,172.13,452,211.13,452z"/>
	<path class="st0" d="M361.13,452.75c38.25-1.75,79.75-0.25,119.25-0.75c0.87,2.38-4.07,6.52-7.5,9
		C443.88,481.92,382.89,478.26,361.13,452.75z"/>
	<path class="st0" d="M286.88,492.5c18.66-13.72,68.31-2.74,99.75-3.75c2.07,2.69,8.5,4.98,8.25,7.5c-26.09,0.6-62.35-4.23-87-3.75
		c-8.1,0.16-15,5.7-20.25,9.75c-19.49-18.32-72.54-3.77-108-6c-2.09-1.54,6.13-5.22,8.25-7.5c25.08,1.09,61.3-6.11,85.5-3
		C277.6,486.29,282.9,490.1,286.88,492.5z"/>
	<path class="st0" d="M286.88,508.25c14.56-12.76,59.25-5.85,90-4.5c16.88,0.74,27.47-0.91,32.25,8.25
		c-26.08-1.01-58.88-1.8-86.25-3c-15.69-0.69-27.79-1.24-35.25,9c-15.17-15.1-51.96-8.91-85.5-7.5c-12.93,0.54-25.69,1.77-36.75,1.5
		c-1.97-0.22,6.51-6.76,9-7.5c8.18-2.44,24.78-0.87,39.75-1.5c13.54-0.57,27.98-0.95,39.75-1.5
		C268.45,500.82,280.4,500.39,286.88,508.25z"/>
	<path class="st1" d="M348.38,555.5c0.88,0.12,0.63,1.37,0.75,2.25c-8.68,4.32-19.36,6.64-27.75,11.25
		C323.73,560.85,341.09,561.21,348.38,555.5z"/>
	<path class="st1" d="M349.13,560c3.51,4.24,5.14,10.36,7.5,15.75c-2.31,0.56-1.44-2.06-3.75-1.5c4.36,31.08,9.53,70.8-27,69.75
		c7.1-8.44,26.36-10.64,27-24C353.73,602.23,346,577.99,349.13,560z"/>
	<path class="st1" d="M306.38,684.5c-7.5,0-15,0-22.5,0c-21.34-2.66-40.24-7.76-48-24c27.78,22.6,100.38,22.68,123-4.5
		c0.71-8.08-6.81-12.95-2.25-20.25c3.04,11.04,17.24,7.12,20.25-1.5c3.2,1.3-0.83,6.71,3.75,7.5c6.49,0.24,5.96-6.54,9.75-9
		c-2.24,9.49,9.55,8.55,12.75,4.5c3.47-20.33-2.32-43.4-0.75-63.75c10.1,16.65,0.98,52.52,9.75,70.5c8.78,0.53,13.48-3.02,18.75-6
		c-6.28-1.97-14.3-2.2-21.75-3c-0.49-2.99,1.98-3.02,1.5-6c10.53-5.22,20.51-10.99,31.5-15.75c-1.62-15.92-6.26-39-2.25-53.25
		c3.07,4.18,4.57,9.93,6,15.75c-2.05,0.55-1.51-1.49-3-1.5c-0.31,13.56,0.72,25.78,3,36.75c3.31-0.19,5.8-1.2,9.75-0.75
		c11.53,12.1-5.99,23.88-12,9c-7.99,2.26-13.84,6.66-21,9.75c10.13,2.37,21.37,3.63,33.75,3.75c1.43,1.98-1.69,4.42-2.25,6.75
		c-20.11-4.76-44.37,27.31-48.75,0.75c-1.36,6.3-14.32,11.5-16.5,2.25c-2.12,4.94-11.74,9.39-14.25,1.5c-2.7,3.55-6.72,5.78-12.75,6
		C358.31,676.44,330.42,678.55,306.38,684.5z M454.88,620c1.06-3.11-4.03-3.9-5.25-2.25C451.36,618.52,452.04,620.33,454.88,620z"/>
	<path class="st1" d="M459.38,579.5c-1.36-2.71-2.07,1.32-3.75,0.75c3.26-5.11,1.89-12.87-4.5-14.25c-0.35-2.36,2.02-1.98,2.25-3.75
		c3.28,0.97,4.19,4.31,5.25,7.5c1.62-2.88,1.7-7.3,4.5-9c1.93,0.57,2.61,2.39,2.25,5.25c-2.05,0.55-1.51-1.49-3-1.5
		c-1.47,3.03-1.99,7.01-3,10.5c1.45,1.8,4.21,2.29,4.5,5.25c-1.53,2.47-5.61,2.39-7.5,4.5c1.67,4.85,3.41,12.71,1.5,18.75
		C458.02,595.61,450.73,582.45,459.38,579.5z"/>
	<path class="st1" d="M285.38,562.25c9.67,11.58-0.4,42.9,11.25,52.5c-10.63-18.92,16.12-29.19,27-16.5
		c-7.34,0.02-21.41-2.63-25.5,4.5c0.87,7.13,4.82,11.18,9.75,14.25c11.89,1.39,15.16-5.84,22.5-9c-3.87,10.53-15.81,18.21-27,17.25
		c-21.5-1.85-15.38-30.81-17.25-53.25c-2.95,15.69,4.03,38.44-3.75,50.25c32.46,6.99-7.16,34.87-26.25,33
		c-18.82-1.84-15.18-28.8-6-39.75c-4.16,10.34-8.71,30.02,6.75,32.25c13.92,2.01,25.15-8.25,35.25-13.5
		c-4.36-4.65-14.42-3.58-19.5-7.5c0.21-7.54,8.12-7.38,10.5-12.75C284.17,597.05,280.77,575.64,285.38,562.25z"/>
	<path class="st1" d="M179.63,636.5c3.94-1.56,7.51-3.49,12-4.5c-1.59-7.21-1.17-18.25,4.5-18.75c7.7-0.68,8.53,15.61,3,21
		c31.27,14.93,11.07-54.72,15.75-71.25c7.91,10.51,3.91,49.13,6,66.75c0.76,6.41,6.8,8.18,12.75,4.5
		c1.97-22.18-3.83-50.4-0.75-71.25c3.71,3.79,4.42,10.58,6.75,15.75c-1.74,1.81-2.01-1.17-3.75-1.5
		c-0.76,14.16,8.23,57.09-3.75,64.5c-6.04,3.73-14.19,0.89-14.25-7.5c-2.24,12.23-19.4,12.63-24.75,3
		c-10.75,5.08-27.27,11.27-42,7.5c-1.32,0.68-1.37,2.63-2.25,3.75c-0.38-4.87-3.5-7-3.75-12c-4.9,3.86-12.74,10.18-21,6
		c-6.91-11.5-3.53-35-4.5-54c-0.51-9.96-4.25-18.57-1.5-25.5c9.35,16.9,1.99,50.51,7.5,71.25c7.06,5.83,16.58-1.38,21.75-4.5
		c-0.68,4.18,0.69,6.31,3,7.5c5.45-5.33,10.22-22.32,21-23.25C183.84,612.93,189.29,628.65,179.63,636.5z M194.63,629.75
		c2.61-0.89,5.36-1.64,6-4.5c-1.86-1.89-2.43-5.07-6-5.25C191.84,623.28,193.04,625.85,194.63,629.75z M153.38,638.75
		c12.56,2.2,22.88-3.37,28.5-10.5C173.15,613.42,155.97,627.54,153.38,638.75z"/>
	<path class="st1" d="M365.63,563.75c3.44,3.31,4.08,9.42,6,14.25c0.35,3.07-1.89-0.02-3,0c-0.45,18.52,7.46,48.47-2.25,60.75
		c0.54-18.87,0.23-43.84-1.5-62.25C364.45,571.94,362.43,567.78,365.63,563.75z"/>
	<path class="st1" d="M308.63,565.25c4.43,2.32,8.54,4.96,11.25,9c-1.25,0-2.5,0-3.75,0c10.17,17.29,36.64,25.58,32.25,52.5
		c-5.08-22.05-24.2-33.13-35.25-49.5C311.12,574.28,307.31,572.15,308.63,565.25z"/>
	<path class="st1" d="M207.38,569.75c-8.6,4.65-19.09,7.41-28.5,11.25c5.34-7.91,19.04-7.46,27-12.75
		C207.15,567.97,207.29,568.84,207.38,569.75z"/>
	<path class="st1" d="M339.38,568.25c0,1.25,0,2.5,0,3.75c-2.03,1.58-1.87-1.7-4.5,0c0.69,4.88,5.63,0.7,7.5,0
		c-1.29,5.21-6.88,6.12-10.5,9c-0.36-2.36,0.94-3.06,2.25-3.75c-0.08-1.42-2.48-0.52-2.25-2.25
		C333.03,571.41,334.54,568.16,339.38,568.25z"/>
	<path class="st1" d="M168.38,570.5c-6.97,7.03-19.53,8.47-29.25,12.75c2.22-4.71,8.55-5.72,13.5-7.5
		C157.73,573.91,163.33,571.96,168.38,570.5z"/>
	<path class="st1" d="M471.38,571.25c4.15,2.85,3.7,10.3,6.75,14.25c-0.93,3.1-2.18-0.28-3.75-0.75
		c-0.02,19.19,7.65,48.55-2.25,61.5c1.41-22.45-0.07-48.4-3-69C470.06,575.43,470.98,573.61,471.38,571.25z"/>
	<path class="st1" d="M261.38,584c6.65,0.8,10.3,14.21,5.25,19.5C269.65,592.65,259.83,590.89,261.38,584z"/>
	<path class="st1" d="M383.63,584c2.98-0.23,4.06,1.44,3.75,4.5c-6.49-2.84-4.27,7.1-6.75,10.5c-2.15-3.85-3.42-8.58-7.5-10.5
		c-0.55-2.05,1.49-1.51,1.5-3c3.51,0.74,5.16,3.34,5.25,7.5C382.07,590.94,382.05,586.67,383.63,584z"/>
	<path class="st1" d="M197.63,588.5c2.06,1.44,4.39,2.61,6,4.5c-0.84,1.91-1.84,3.66-3,5.25c-2.61-0.14-2.85-2.65-5.25-3
		c-1.01,0.74-1.5,2-2.25,3c-2.96-0.29-4.08-2.42-6-3.75c0.2-2.3,1.63-3.37,2.25-5.25c3.04-0.29,3.45,2.05,5.25,3
		C196.28,591.66,196.5,589.63,197.63,588.5z"/>
	<path class="st1" d="M248.63,592.25c2.8,2.49-3.35,8.51-1.5,15c1.5,1.41,3.49-0.92,3.75-3c2.2,2.98-1.05,6.93-3,8.25
		C240.11,609.37,246.39,596.81,248.63,592.25z"/>
	<path class="st1" d="M151.88,596c2.59,0.91,4.52,2.48,6,4.5c-0.88,6.59-5.79,4.9-8.25,0.75C149.82,598.95,151.25,597.88,151.88,596
		z"/>
	<path class="st1" d="M108.38,627.5c-2.27-0.88-4.02-2.28-6.75-0.75c-0.59,2.59,0.83,3.17,1.5,4.5c6.5,1,7.37-3.63,12-4.5
		c-2.77,8.73-12.19,10.81-18.75,15.75c-0.48-3.98,1.88-5.12,3.75-6.75c-0.96-1.29-2.99-1.51-3.75-3
		C94.47,623.23,113.6,614.21,108.38,627.5z"/>
	<path class="st1" d="M313.88,638.75c-1.53,1.78-2.97-1.03-4.5,0.75c0.76,5.89,6.18-1.36,6.75,0c-0.52,6.23-7.43,6.07-8.25,12
		c2.19,3.43,9.03,0.56,12,0c-1.89,3.61-9.47,6.08-13.5,3c-0.36-4.36,0.95-7.05,3-9C302.72,643.39,312.59,630.41,313.88,638.75z"/>
	<path class="st1" d="M194.63,645.5c2.03,10.25-8.3,5.18-14.25,6c-6.56,0.9-9.93,8.49-16.5,7.5
		C172.19,653.04,183.71,646.37,194.63,645.5z M187.88,650c1.64-0.86,4.85-0.15,5.25-2.25C190.66,647.78,187.82,647.44,187.88,650z"
		/>
	<path class="st1" d="M396.38,652.25c3.42,0.2,0.58,5.01,0,6c-12-1.46-18.54,6.29-27.75,11.25c7.76-3.74,8.44-14.56,21-13.5
		c3.02,0.52,1.84-3.16,4.5-3c-0.06,1.06-0.12,2.12,0.75,2.25C396.26,655.14,395.34,652.71,396.38,652.25z"/>
	<path class="st1" d="M437.63,652.25c2.71,0.79,4.15,2.85,6,4.5c0.4,2.9-1.91,3.09-2.25,5.25c-2.8-0.45-3.88-2.62-6-3.75
		C435.48,655.6,437.52,654.9,437.63,652.25z"/>
	<path class="st0" d="M287.63,533c-13.8-14.63-48.71-8.64-77.25-7.5c-20.32,0.81-40.25,2.35-58.5,2.25
		c-2.34-1.79,6.28-5.07,8.25-7.5c33.88,1.21,76-6.29,108-4.5c7.58,0.42,13.54,3.81,18.75,7.5c14.93-11.64,42.74-6.09,72.75-5.25
		c20.1,0.56,41.66-0.6,53.25,2.25c4.52,1.11,7.75,5.42,11.25,7.5c-13.15,0.32-38.41-1.34-60-2.25
		C333.28,524.2,302.34,518.15,287.63,533z"/>
	<path class="st1" d="M397.13,596.75c-1.09,6.17,1.11,6.93,0.75,10.5c-5.66-0.39-11.71,9.07-21,9.75
		c4.59-4.16,11.22-6.28,15.75-10.5c0.41-2.66-2.66-1.84-2.25-4.5C391.05,598.56,393.82,595.32,397.13,596.75z"/>
	<path class="st2" d="M391.75,601.25c-0.23,1.98,1.04,2.46,3,2.25c0.21-1.96-0.27-3.23-2.25-3
		C392.46,600.96,392.39,601.39,391.75,601.25z"/>
</g>
</svg>
